{
	"asset":{
		"generator":"Khronos glTF Blender I/O v4.1.62",
		"version":"2.0"
	},
	"scene":0,
	"scenes":[
		{
			"name":"Scene",
			"nodes":[
				0,
				1,
				2,
				3,
				4,
				5,
				6
			]
		}
	],
	"nodes":[
		{
			"mesh":0,
			"name":"Base",
			"rotation":[
				0,
				0,
				-0.27681389451026917,
				0.9609235525131226
			],
			"translation":[
				0.5298558473587036,
				5.204391002655029,
				-0.010048230178654194
			]
		},
		{
			"mesh":1,
			"name":"Leaves1",
			"rotation":[
				0.06380299478769302,
				-0.11084602773189545,
				-0.7861243486404419,
				0.6046907305717468
			],
			"scale":[
				1.3190661668777466,
				1.3190661668777466,
				1.3190661668777466
			],
			"translation":[
				3.682218551635742,
				6.365909576416016,
				-0.40019866824150085
			]
		},
		{
			"mesh":2,
			"name":"Leaves2",
			"rotation":[
				-0.006478330120444298,
				0.011254913173615932,
				0.07982024550437927,
				0.9967247247695923
			],
			"scale":[
				1.5139213800430298,
				1.5139213800430298,
				1.5139213800430298
			],
			"translation":[
				1.9983681440353394,
				6.774115562438965,
				-0.40019863843917847
			]
		},
		{
			"mesh":3,
			"name":"Leaves3",
			"rotation":[
				0.020129317417740822,
				-0.034970998764038086,
				-0.24801556766033173,
				0.9679153561592102
			],
			"scale":[
				1.2406049966812134,
				1.2406048774719238,
				1.2406046390533447
			],
			"translation":[
				-0.5571049451828003,
				6.9465012550354,
				-0.6571657657623291
			]
		},
		{
			"mesh":4,
			"name":"Leaves4",
			"rotation":[
				-0.11471854895353317,
				0.019071998074650764,
				0.0620279386639595,
				0.991276204586029
			],
			"scale":[
				0.7237533330917358,
				0.7237533926963806,
				0.7237533926963806
			],
			"translation":[
				-0.6082287430763245,
				6.255102157592773,
				-1.6773711442947388
			]
		},
		{
			"mesh":5,
			"name":"Leaves5",
			"rotation":[
				-0.027582092210650444,
				-0.09271219372749329,
				-0.14157284796237946,
				0.9851908683776855
			],
			"scale":[
				1.408213496208191,
				1.4082133769989014,
				1.4082132577896118
			],
			"translation":[
				-0.5065507888793945,
				6.307327747344971,
				0.856904149055481
			]
		},
		{
			"mesh":6,
			"name":"Leaves6",
			"rotation":[
				-0.01457352563738823,
				0.029841657727956772,
				-0.551162838935852,
				0.8337366580963135
			],
			"scale":[
				1.7221802473068237,
				1.7221801280975342,
				1.7221797704696655
			],
			"translation":[
				0.8712875843048096,
				6.909932613372803,
				0.5747684240341187
			]
		}
	],
	"materials":[
		{
			"doubleSided":true,
			"name":"BaseMaterial",
			"pbrMetallicRoughness":{
				"baseColorFactor":[
					0.25137779116630554,
					0.09757807850837708,
					0.036853354424238205,
					1
				],
				"metallicFactor":0,
				"roughnessFactor":0.5
			}
		},
		{
			"doubleSided":true,
			"name":"LeafMaterial",
			"pbrMetallicRoughness":{
				"baseColorFactor":[
					0.048171259462833405,
					0.386430025100708,
					0.00030361436074599624,
					1
				],
				"metallicFactor":0,
				"roughnessFactor":0.5
			}
		}
	],
	"meshes":[
		{
			"name":"Cube.001",
			"primitives":[
				{
					"attributes":{
						"POSITION":0,
						"NORMAL":1
					},
					"indices":2,
					"material":0
				}
			]
		},
		{
			"name":"Icosphere",
			"primitives":[
				{
					"attributes":{
						"POSITION":3,
						"NORMAL":4,
						"TEXCOORD_0":5
					},
					"indices":6,
					"material":1
				}
			]
		},
		{
			"name":"Icosphere.001",
			"primitives":[
				{
					"attributes":{
						"POSITION":7,
						"NORMAL":8,
						"TEXCOORD_0":9
					},
					"indices":6,
					"material":1
				}
			]
		},
		{
			"name":"Icosphere.002",
			"primitives":[
				{
					"attributes":{
						"POSITION":10,
						"NORMAL":11,
						"TEXCOORD_0":12
					},
					"indices":6,
					"material":1
				}
			]
		},
		{
			"name":"Icosphere.003",
			"primitives":[
				{
					"attributes":{
						"POSITION":13,
						"NORMAL":14,
						"TEXCOORD_0":15
					},
					"indices":6,
					"material":1
				}
			]
		},
		{
			"name":"Icosphere.004",
			"primitives":[
				{
					"attributes":{
						"POSITION":16,
						"NORMAL":17,
						"TEXCOORD_0":18
					},
					"indices":6,
					"material":1
				}
			]
		},
		{
			"name":"Icosphere.005",
			"primitives":[
				{
					"attributes":{
						"POSITION":19,
						"NORMAL":20,
						"TEXCOORD_0":21
					},
					"indices":6,
					"material":1
				}
			]
		}
	],
	"accessors":[
		{
			"bufferView":0,
			"componentType":5126,
			"count":1103,
			"max":[
				2.7714970111846924,
				2.9031572341918945,
				1.0089432001113892
			],
			"min":[
				-1.532568097114563,
				-4.961528778076172,
				-1.47287118434906
			],
			"type":"VEC3"
		},
		{
			"bufferView":1,
			"componentType":5126,
			"count":1103,
			"type":"VEC3"
		},
		{
			"bufferView":2,
			"componentType":5123,
			"count":2604,
			"type":"SCALAR"
		},
		{
			"bufferView":3,
			"componentType":5126,
			"count":60,
			"max":[
				0.8944249749183655,
				1,
				0.8506399989128113
			],
			"min":[
				-0.8944249749183655,
				-1,
				-0.8506399989128113
			],
			"type":"VEC3"
		},
		{
			"bufferView":4,
			"componentType":5126,
			"count":60,
			"type":"VEC3"
		},
		{
			"bufferView":5,
			"componentType":5126,
			"count":60,
			"type":"VEC2"
		},
		{
			"bufferView":6,
			"componentType":5123,
			"count":60,
			"type":"SCALAR"
		},
		{
			"bufferView":7,
			"componentType":5126,
			"count":60,
			"max":[
				0.8944249749183655,
				1,
				0.8506399989128113
			],
			"min":[
				-0.8944249749183655,
				-1,
				-0.8506399989128113
			],
			"type":"VEC3"
		},
		{
			"bufferView":8,
			"componentType":5126,
			"count":60,
			"type":"VEC3"
		},
		{
			"bufferView":9,
			"componentType":5126,
			"count":60,
			"type":"VEC2"
		},
		{
			"bufferView":10,
			"componentType":5126,
			"count":60,
			"max":[
				0.8944249749183655,
				1,
				0.8506399989128113
			],
			"min":[
				-0.8944249749183655,
				-1,
				-0.8506399989128113
			],
			"type":"VEC3"
		},
		{
			"bufferView":11,
			"componentType":5126,
			"count":60,
			"type":"VEC3"
		},
		{
			"bufferView":12,
			"componentType":5126,
			"count":60,
			"type":"VEC2"
		},
		{
			"bufferView":13,
			"componentType":5126,
			"count":60,
			"max":[
				0.8944249749183655,
				1,
				0.8506399989128113
			],
			"min":[
				-0.8944249749183655,
				-1,
				-0.8506399989128113
			],
			"type":"VEC3"
		},
		{
			"bufferView":14,
			"componentType":5126,
			"count":60,
			"type":"VEC3"
		},
		{
			"bufferView":15,
			"componentType":5126,
			"count":60,
			"type":"VEC2"
		},
		{
			"bufferView":16,
			"componentType":5126,
			"count":60,
			"max":[
				0.8944249749183655,
				1,
				0.8506399989128113
			],
			"min":[
				-0.8944249749183655,
				-1,
				-0.8506399989128113
			],
			"type":"VEC3"
		},
		{
			"bufferView":17,
			"componentType":5126,
			"count":60,
			"type":"VEC3"
		},
		{
			"bufferView":18,
			"componentType":5126,
			"count":60,
			"type":"VEC2"
		},
		{
			"bufferView":19,
			"componentType":5126,
			"count":60,
			"max":[
				0.8944249749183655,
				1,
				0.8506399989128113
			],
			"min":[
				-0.8944249749183655,
				-1,
				-0.8506399989128113
			],
			"type":"VEC3"
		},
		{
			"bufferView":20,
			"componentType":5126,
			"count":60,
			"type":"VEC3"
		},
		{
			"bufferView":21,
			"componentType":5126,
			"count":60,
			"type":"VEC2"
		}
	],
	"bufferViews":[
		{
			"buffer":0,
			"byteLength":13236,
			"byteOffset":0,
			"target":34962
		},
		{
			"buffer":0,
			"byteLength":13236,
			"byteOffset":13236,
			"target":34962
		},
		{
			"buffer":0,
			"byteLength":5208,
			"byteOffset":26472,
			"target":34963
		},
		{
			"buffer":0,
			"byteLength":720,
			"byteOffset":31680,
			"target":34962
		},
		{
			"buffer":0,
			"byteLength":720,
			"byteOffset":32400,
			"target":34962
		},
		{
			"buffer":0,
			"byteLength":480,
			"byteOffset":33120,
			"target":34962
		},
		{
			"buffer":0,
			"byteLength":120,
			"byteOffset":33600,
			"target":34963
		},
		{
			"buffer":0,
			"byteLength":720,
			"byteOffset":33720,
			"target":34962
		},
		{
			"buffer":0,
			"byteLength":720,
			"byteOffset":34440,
			"target":34962
		},
		{
			"buffer":0,
			"byteLength":480,
			"byteOffset":35160,
			"target":34962
		},
		{
			"buffer":0,
			"byteLength":720,
			"byteOffset":35640,
			"target":34962
		},
		{
			"buffer":0,
			"byteLength":720,
			"byteOffset":36360,
			"target":34962
		},
		{
			"buffer":0,
			"byteLength":480,
			"byteOffset":37080,
			"target":34962
		},
		{
			"buffer":0,
			"byteLength":720,
			"byteOffset":37560,
			"target":34962
		},
		{
			"buffer":0,
			"byteLength":720,
			"byteOffset":38280,
			"target":34962
		},
		{
			"buffer":0,
			"byteLength":480,
			"byteOffset":39000,
			"target":34962
		},
		{
			"buffer":0,
			"byteLength":720,
			"byteOffset":39480,
			"target":34962
		},
		{
			"buffer":0,
			"byteLength":720,
			"byteOffset":40200,
			"target":34962
		},
		{
			"buffer":0,
			"byteLength":480,
			"byteOffset":40920,
			"target":34962
		},
		{
			"buffer":0,
			"byteLength":720,
			"byteOffset":41400,
			"target":34962
		},
		{
			"buffer":0,
			"byteLength":720,
			"byteOffset":42120,
			"target":34962
		},
		{
			"buffer":0,
			"byteLength":480,
			"byteOffset":42840,
			"target":34962
		}
	],
	"buffers":[
		{
			"byteLength":43320,
			"uri":"grown-tree-1.bin"
		}
	]
}
