{
	"asset":{
		"generator":"Khronos glTF Blender I/O v4.1.62",
		"version":"2.0"
	},
	"scene":0,
	"scenes":[
		{
			"name":"Scene",
			"nodes":[
				0,
				1,
				2,
				3,
				4
			]
		}
	],
	"nodes":[
		{
			"mesh":0,
			"name":"Base"
		},
		{
			"mesh":1,
			"name":"Leaves1",
			"rotation":[
				-0.2075834721326828,
				-0.5396239757537842,
				0.7621603608131409,
				0.2912505269050598
			],
			"scale":[
				0.5143502950668335,
				0.5143503546714783,
				0.5143502950668335
			],
			"translation":[
				-1.3306748867034912,
				4.033325672149658,
				-0.3299889862537384
			]
		},
		{
			"mesh":2,
			"name":"Leaves2",
			"rotation":[
				-0.11471854895353317,
				0.019071998074650764,
				0.0620279386639595,
				0.991276204586029
			],
			"scale":[
				0.6553916335105896,
				0.6553916931152344,
				0.6553915739059448
			],
			"translation":[
				-0.4044440984725952,
				4.2918500900268555,
				0.18273085355758667
			]
		},
		{
			"mesh":3,
			"name":"Leaves3",
			"rotation":[
				0.29224148392677307,
				0.4830629825592041,
				-0.8146849274635315,
				0.1324143409729004
			],
			"scale":[
				0.6852566599845886,
				0.6852566003799438,
				0.6852564215660095
			],
			"translation":[
				0.766591489315033,
				4.348939895629883,
				-0.41910597681999207
			]
		},
		{
			"mesh":4,
			"name":"Leaves4",
			"rotation":[
				0.29224148392677307,
				0.4830629825592041,
				-0.8146849274635315,
				0.1324143409729004
			],
			"scale":[
				0.6691164374351501,
				0.6691164374351501,
				0.6691160798072815
			],
			"translation":[
				2.270537853240967,
				4.204453945159912,
				-0.2713223099708557
			]
		}
	],
	"materials":[
		{
			"doubleSided":true,
			"name":"BaseMaterial",
			"pbrMetallicRoughness":{
				"baseColorFactor":[
					0.25137779116630554,
					0.09757807850837708,
					0.036853354424238205,
					1
				],
				"metallicFactor":0,
				"roughnessFactor":0.5
			}
		},
		{
			"doubleSided":true,
			"name":"LeafMaterial",
			"pbrMetallicRoughness":{
				"baseColorFactor":[
					0.048171259462833405,
					0.386430025100708,
					0.00030361436074599624,
					1
				],
				"metallicFactor":0,
				"roughnessFactor":0.5
			}
		}
	],
	"meshes":[
		{
			"name":"Cube",
			"primitives":[
				{
					"attributes":{
						"POSITION":0,
						"NORMAL":1
					},
					"indices":2,
					"material":0
				}
			]
		},
		{
			"name":"Icosphere.009",
			"primitives":[
				{
					"attributes":{
						"POSITION":3,
						"NORMAL":4,
						"TEXCOORD_0":5
					},
					"indices":6,
					"material":1
				}
			]
		},
		{
			"name":"Icosphere.010",
			"primitives":[
				{
					"attributes":{
						"POSITION":7,
						"NORMAL":8,
						"TEXCOORD_0":9
					},
					"indices":6,
					"material":1
				}
			]
		},
		{
			"name":"Icosphere.011",
			"primitives":[
				{
					"attributes":{
						"POSITION":10,
						"NORMAL":11,
						"TEXCOORD_0":12
					},
					"indices":6,
					"material":1
				}
			]
		},
		{
			"name":"Icosphere.012",
			"primitives":[
				{
					"attributes":{
						"POSITION":13,
						"NORMAL":14,
						"TEXCOORD_0":15
					},
					"indices":6,
					"material":1
				}
			]
		}
	],
	"accessors":[
		{
			"bufferView":0,
			"componentType":5126,
			"count":866,
			"max":[
				2.1432600021362305,
				4.135670185089111,
				0.31676822900772095
			],
			"min":[
				-1.2739373445510864,
				0.0007412433624267578,
				-0.7194600701332092
			],
			"type":"VEC3"
		},
		{
			"bufferView":1,
			"componentType":5126,
			"count":866,
			"type":"VEC3"
		},
		{
			"bufferView":2,
			"componentType":5123,
			"count":1998,
			"type":"SCALAR"
		},
		{
			"bufferView":3,
			"componentType":5126,
			"count":60,
			"max":[
				0.8944249749183655,
				1,
				0.8506399989128113
			],
			"min":[
				-0.8944249749183655,
				-1,
				-0.8506399989128113
			],
			"type":"VEC3"
		},
		{
			"bufferView":4,
			"componentType":5126,
			"count":60,
			"type":"VEC3"
		},
		{
			"bufferView":5,
			"componentType":5126,
			"count":60,
			"type":"VEC2"
		},
		{
			"bufferView":6,
			"componentType":5123,
			"count":60,
			"type":"SCALAR"
		},
		{
			"bufferView":7,
			"componentType":5126,
			"count":60,
			"max":[
				0.8944249749183655,
				1,
				0.8506399989128113
			],
			"min":[
				-0.8944249749183655,
				-1,
				-0.8506399989128113
			],
			"type":"VEC3"
		},
		{
			"bufferView":8,
			"componentType":5126,
			"count":60,
			"type":"VEC3"
		},
		{
			"bufferView":9,
			"componentType":5126,
			"count":60,
			"type":"VEC2"
		},
		{
			"bufferView":10,
			"componentType":5126,
			"count":60,
			"max":[
				0.8944249749183655,
				1,
				0.8506399989128113
			],
			"min":[
				-0.8944249749183655,
				-1,
				-0.8506399989128113
			],
			"type":"VEC3"
		},
		{
			"bufferView":11,
			"componentType":5126,
			"count":60,
			"type":"VEC3"
		},
		{
			"bufferView":12,
			"componentType":5126,
			"count":60,
			"type":"VEC2"
		},
		{
			"bufferView":13,
			"componentType":5126,
			"count":60,
			"max":[
				0.8944249749183655,
				1,
				0.8506399989128113
			],
			"min":[
				-0.8944249749183655,
				-1,
				-0.8506399989128113
			],
			"type":"VEC3"
		},
		{
			"bufferView":14,
			"componentType":5126,
			"count":60,
			"type":"VEC3"
		},
		{
			"bufferView":15,
			"componentType":5126,
			"count":60,
			"type":"VEC2"
		}
	],
	"bufferViews":[
		{
			"buffer":0,
			"byteLength":10392,
			"byteOffset":0,
			"target":34962
		},
		{
			"buffer":0,
			"byteLength":10392,
			"byteOffset":10392,
			"target":34962
		},
		{
			"buffer":0,
			"byteLength":3996,
			"byteOffset":20784,
			"target":34963
		},
		{
			"buffer":0,
			"byteLength":720,
			"byteOffset":24780,
			"target":34962
		},
		{
			"buffer":0,
			"byteLength":720,
			"byteOffset":25500,
			"target":34962
		},
		{
			"buffer":0,
			"byteLength":480,
			"byteOffset":26220,
			"target":34962
		},
		{
			"buffer":0,
			"byteLength":120,
			"byteOffset":26700,
			"target":34963
		},
		{
			"buffer":0,
			"byteLength":720,
			"byteOffset":26820,
			"target":34962
		},
		{
			"buffer":0,
			"byteLength":720,
			"byteOffset":27540,
			"target":34962
		},
		{
			"buffer":0,
			"byteLength":480,
			"byteOffset":28260,
			"target":34962
		},
		{
			"buffer":0,
			"byteLength":720,
			"byteOffset":28740,
			"target":34962
		},
		{
			"buffer":0,
			"byteLength":720,
			"byteOffset":29460,
			"target":34962
		},
		{
			"buffer":0,
			"byteLength":480,
			"byteOffset":30180,
			"target":34962
		},
		{
			"buffer":0,
			"byteLength":720,
			"byteOffset":30660,
			"target":34962
		},
		{
			"buffer":0,
			"byteLength":720,
			"byteOffset":31380,
			"target":34962
		},
		{
			"buffer":0,
			"byteLength":480,
			"byteOffset":32100,
			"target":34962
		}
	],
	"buffers":[
		{
			"byteLength":32580,
			"uri":"medium-tree-1.bin"
		}
	]
}
