{
	"asset":{
		"generator":"Khronos glTF Blender I/O v4.1.62",
		"version":"2.0"
	},
	"scene":0,
	"scenes":[
		{
			"name":"Scene",
			"nodes":[
				0,
				1,
				2,
				3
			]
		}
	],
	"nodes":[
		{
			"mesh":0,
			"name":"Leaves1",
			"rotation":[
				0.06380299478769302,
				-0.11084602773189545,
				-0.7861243486404419,
				0.6046907305717468
			],
			"scale":[
				-0.08960392326116562,
				-0.08960393071174622,
				-0.08960393071174622
			],
			"translation":[
				0.6226904988288879,
				1.9118094444274902,
				-0.421467661857605
			]
		},
		{
			"mesh":1,
			"name":"Base"
		},
		{
			"mesh":2,
			"name":"Leaves2",
			"rotation":[
				0.48303356766700745,
				0.04775741696357727,
				0.4284009635448456,
				0.7621485590934753
			],
			"scale":[
				-0.05806064233183861,
				-0.0580606535077095,
				-0.0580606535077095
			],
			"translation":[
				-0.12107425183057785,
				1.1578491926193237,
				-0.18734003603458405
			]
		},
		{
			"mesh":3,
			"name":"Leaves3",
			"rotation":[
				0.4830336272716522,
				0.04775743559002876,
				0.4284009337425232,
				0.7621485590934753
			],
			"scale":[
				-0.08155893534421921,
				-0.0815589427947998,
				-0.0815589427947998
			],
			"translation":[
				-0.07696468383073807,
				1.8549731969833374,
				0.024107784032821655
			]
		}
	],
	"materials":[
		{
			"doubleSided":true,
			"name":"LeafMaterial",
			"pbrMetallicRoughness":{
				"baseColorFactor":[
					0.048171259462833405,
					0.386430025100708,
					0.00030361436074599624,
					1
				],
				"metallicFactor":0,
				"roughnessFactor":0.5
			}
		},
		{
			"doubleSided":true,
			"name":"BaseMaterial",
			"pbrMetallicRoughness":{
				"baseColorFactor":[
					0.25137779116630554,
					0.09757807850837708,
					0.036853354424238205,
					1
				],
				"metallicFactor":0,
				"roughnessFactor":0.5
			}
		}
	],
	"meshes":[
		{
			"name":"Icosphere",
			"primitives":[
				{
					"attributes":{
						"POSITION":0,
						"NORMAL":1,
						"TEXCOORD_0":2
					},
					"indices":3,
					"material":0
				}
			]
		},
		{
			"name":"Cube.002",
			"primitives":[
				{
					"attributes":{
						"POSITION":4,
						"NORMAL":5
					},
					"indices":6,
					"material":1
				}
			]
		},
		{
			"name":"Icosphere.006",
			"primitives":[
				{
					"attributes":{
						"POSITION":7,
						"NORMAL":8,
						"TEXCOORD_0":9
					},
					"indices":3,
					"material":0
				}
			]
		},
		{
			"name":"Icosphere.007",
			"primitives":[
				{
					"attributes":{
						"POSITION":10,
						"NORMAL":11,
						"TEXCOORD_0":12
					},
					"indices":3,
					"material":0
				}
			]
		}
	],
	"accessors":[
		{
			"bufferView":0,
			"componentType":5126,
			"count":60,
			"max":[
				0.8944249749183655,
				1,
				0.8506399989128113
			],
			"min":[
				-0.8944249749183655,
				-1,
				-0.8506399989128113
			],
			"type":"VEC3"
		},
		{
			"bufferView":1,
			"componentType":5126,
			"count":60,
			"type":"VEC3"
		},
		{
			"bufferView":2,
			"componentType":5126,
			"count":60,
			"type":"VEC2"
		},
		{
			"bufferView":3,
			"componentType":5123,
			"count":60,
			"type":"SCALAR"
		},
		{
			"bufferView":4,
			"componentType":5126,
			"count":494,
			"max":[
				0.6284006237983704,
				1.9034857749938965,
				0.0545775480568409
			],
			"min":[
				-0.1384914368391037,
				-0.0005990437930449843,
				-0.43592822551727295
			],
			"type":"VEC3"
		},
		{
			"bufferView":5,
			"componentType":5126,
			"count":494,
			"type":"VEC3"
		},
		{
			"bufferView":6,
			"componentType":5123,
			"count":1182,
			"type":"SCALAR"
		},
		{
			"bufferView":7,
			"componentType":5126,
			"count":60,
			"max":[
				0.8944249749183655,
				1,
				0.8506399989128113
			],
			"min":[
				-0.8944249749183655,
				-1,
				-0.8506399989128113
			],
			"type":"VEC3"
		},
		{
			"bufferView":8,
			"componentType":5126,
			"count":60,
			"type":"VEC3"
		},
		{
			"bufferView":9,
			"componentType":5126,
			"count":60,
			"type":"VEC2"
		},
		{
			"bufferView":10,
			"componentType":5126,
			"count":60,
			"max":[
				0.8944249749183655,
				1,
				0.8506399989128113
			],
			"min":[
				-0.8944249749183655,
				-1,
				-0.8506399989128113
			],
			"type":"VEC3"
		},
		{
			"bufferView":11,
			"componentType":5126,
			"count":60,
			"type":"VEC3"
		},
		{
			"bufferView":12,
			"componentType":5126,
			"count":60,
			"type":"VEC2"
		}
	],
	"bufferViews":[
		{
			"buffer":0,
			"byteLength":720,
			"byteOffset":0,
			"target":34962
		},
		{
			"buffer":0,
			"byteLength":720,
			"byteOffset":720,
			"target":34962
		},
		{
			"buffer":0,
			"byteLength":480,
			"byteOffset":1440,
			"target":34962
		},
		{
			"buffer":0,
			"byteLength":120,
			"byteOffset":1920,
			"target":34963
		},
		{
			"buffer":0,
			"byteLength":5928,
			"byteOffset":2040,
			"target":34962
		},
		{
			"buffer":0,
			"byteLength":5928,
			"byteOffset":7968,
			"target":34962
		},
		{
			"buffer":0,
			"byteLength":2364,
			"byteOffset":13896,
			"target":34963
		},
		{
			"buffer":0,
			"byteLength":720,
			"byteOffset":16260,
			"target":34962
		},
		{
			"buffer":0,
			"byteLength":720,
			"byteOffset":16980,
			"target":34962
		},
		{
			"buffer":0,
			"byteLength":480,
			"byteOffset":17700,
			"target":34962
		},
		{
			"buffer":0,
			"byteLength":720,
			"byteOffset":18180,
			"target":34962
		},
		{
			"buffer":0,
			"byteLength":720,
			"byteOffset":18900,
			"target":34962
		},
		{
			"buffer":0,
			"byteLength":480,
			"byteOffset":19620,
			"target":34962
		}
	],
	"buffers":[
		{
			"byteLength":20100,
			"uri":"planted-tree-1.bin"
		}
	]
}
