{
	"asset":{
		"generator":"Khronos glTF Blender I/O v4.1.62",
		"version":"2.0"
	},
	"scene":0,
	"scenes":[
		{
			"name":"Scene",
			"nodes":[
				0,
				1,
				2,
				3
			]
		}
	],
	"nodes":[
		{
			"mesh":0,
			"name":"Cube.001"
		},
		{
			"mesh":1,
			"name":"Cube.002",
			"translation":[
				0.0019649427849799395,
				-0.013864438980817795,
				-0.09110917896032333
			]
		},
		{
			"mesh":2,
			"name":"Sphere.002",
			"scale":[
				0.7293680906295776,
				0.28003060817718506,
				0.7293680906295776
			],
			"translation":[
				0.7831217646598816,
				0.9963264465332031,
				0.12678880989551544
			]
		},
		{
			"mesh":3,
			"name":"Sphere.003",
			"scale":[
				0.7293680906295776,
				0.28003060817718506,
				0.7293680906295776
			],
			"translation":[
				-0.4226708710193634,
				0.9963265657424927,
				-0.5337344408035278
			]
		}
	],
	"materials":[
		{
			"doubleSided":true,
			"name":"Dirt",
			"pbrMetallicRoughness":{
				"baseColorFactor":[
					0.34670209884643555,
					0.16513235867023468,
					0.059511300176382065,
					1
				],
				"metallicFactor":0,
				"roughnessFactor":0.5
			}
		},
		{
			"doubleSided":true,
			"name":"Rock.003",
			"pbrMetallicRoughness":{
				"baseColorFactor":[
					0.800000011920929,
					0.800000011920929,
					0.800000011920929,
					1
				],
				"metallicFactor":0,
				"roughnessFactor":0.5
			}
		},
		{
			"doubleSided":true,
			"name":"Rock.004",
			"pbrMetallicRoughness":{
				"baseColorFactor":[
					0.800000011920929,
					0.800000011920929,
					0.800000011920929,
					1
				],
				"metallicFactor":0,
				"roughnessFactor":0.5
			}
		}
	],
	"meshes":[
		{
			"name":"Cube.001",
			"primitives":[
				{
					"attributes":{
						"POSITION":0,
						"NORMAL":1,
						"TEXCOORD_0":2
					},
					"indices":3,
					"material":0
				}
			]
		},
		{
			"name":"Cube.003",
			"primitives":[
				{
					"attributes":{
						"POSITION":4,
						"NORMAL":5,
						"TEXCOORD_0":6
					},
					"indices":7,
					"material":0
				}
			]
		},
		{
			"name":"Sphere.004",
			"primitives":[
				{
					"attributes":{
						"POSITION":8,
						"NORMAL":9,
						"TEXCOORD_0":10
					},
					"indices":11,
					"material":1
				}
			]
		},
		{
			"name":"Sphere.005",
			"primitives":[
				{
					"attributes":{
						"POSITION":12,
						"NORMAL":13,
						"TEXCOORD_0":14
					},
					"indices":11,
					"material":2
				}
			]
		}
	],
	"accessors":[
		{
			"bufferView":0,
			"componentType":5126,
			"count":64,
			"max":[
				1,
				1,
				1
			],
			"min":[
				-1,
				-1,
				-1
			],
			"type":"VEC3"
		},
		{
			"bufferView":1,
			"componentType":5126,
			"count":64,
			"type":"VEC3"
		},
		{
			"bufferView":2,
			"componentType":5126,
			"count":64,
			"type":"VEC2"
		},
		{
			"bufferView":3,
			"componentType":5123,
			"count":138,
			"type":"SCALAR"
		},
		{
			"bufferView":4,
			"componentType":5126,
			"count":72,
			"max":[
				1.002159595489502,
				1.0527329444885254,
				1.091444730758667
			],
			"min":[
				-1.002159595489502,
				1.0127084255218506,
				-0.908555269241333
			],
			"type":"VEC3"
		},
		{
			"bufferView":5,
			"componentType":5126,
			"count":72,
			"type":"VEC3"
		},
		{
			"bufferView":6,
			"componentType":5126,
			"count":72,
			"type":"VEC2"
		},
		{
			"bufferView":7,
			"componentType":5123,
			"count":120,
			"type":"SCALAR"
		},
		{
			"bufferView":8,
			"componentType":5126,
			"count":372,
			"max":[
				0.095262810587883,
				0.11000001430511475,
				0.11000001430511475
			],
			"min":[
				-0.09526281803846359,
				-0.11000001430511475,
				-0.11000001430511475
			],
			"type":"VEC3"
		},
		{
			"bufferView":9,
			"componentType":5126,
			"count":372,
			"type":"VEC3"
		},
		{
			"bufferView":10,
			"componentType":5126,
			"count":372,
			"type":"VEC2"
		},
		{
			"bufferView":11,
			"componentType":5123,
			"count":540,
			"type":"SCALAR"
		},
		{
			"bufferView":12,
			"componentType":5126,
			"count":372,
			"max":[
				0.095262810587883,
				0.11000001430511475,
				0.11000001430511475
			],
			"min":[
				-0.09526281803846359,
				-0.11000001430511475,
				-0.11000001430511475
			],
			"type":"VEC3"
		},
		{
			"bufferView":13,
			"componentType":5126,
			"count":372,
			"type":"VEC3"
		},
		{
			"bufferView":14,
			"componentType":5126,
			"count":372,
			"type":"VEC2"
		}
	],
	"bufferViews":[
		{
			"buffer":0,
			"byteLength":768,
			"byteOffset":0,
			"target":34962
		},
		{
			"buffer":0,
			"byteLength":768,
			"byteOffset":768,
			"target":34962
		},
		{
			"buffer":0,
			"byteLength":512,
			"byteOffset":1536,
			"target":34962
		},
		{
			"buffer":0,
			"byteLength":276,
			"byteOffset":2048,
			"target":34963
		},
		{
			"buffer":0,
			"byteLength":864,
			"byteOffset":2324,
			"target":34962
		},
		{
			"buffer":0,
			"byteLength":864,
			"byteOffset":3188,
			"target":34962
		},
		{
			"buffer":0,
			"byteLength":576,
			"byteOffset":4052,
			"target":34962
		},
		{
			"buffer":0,
			"byteLength":240,
			"byteOffset":4628,
			"target":34963
		},
		{
			"buffer":0,
			"byteLength":4464,
			"byteOffset":4868,
			"target":34962
		},
		{
			"buffer":0,
			"byteLength":4464,
			"byteOffset":9332,
			"target":34962
		},
		{
			"buffer":0,
			"byteLength":2976,
			"byteOffset":13796,
			"target":34962
		},
		{
			"buffer":0,
			"byteLength":1080,
			"byteOffset":16772,
			"target":34963
		},
		{
			"buffer":0,
			"byteLength":4464,
			"byteOffset":17852,
			"target":34962
		},
		{
			"buffer":0,
			"byteLength":4464,
			"byteOffset":22316,
			"target":34962
		},
		{
			"buffer":0,
			"byteLength":2976,
			"byteOffset":26780,
			"target":34962
		}
	],
	"buffers":[
		{
			"byteLength":29756,
			"uri":"dirt-road-2.bin"
		}
	]
}
