{
	"asset":{
		"generator":"Khronos glTF Blender I/O v4.1.62",
		"version":"2.0"
	},
	"scene":0,
	"scenes":[
		{
			"name":"Scene",
			"nodes":[
				0,
				1,
				2,
				3,
				4,
				5,
				6
			]
		}
	],
	"nodes":[
		{
			"mesh":0,
			"name":"Block"
		},
		{
			"mesh":1,
			"name":"Border",
			"translation":[
				0.0019649427849799395,
				-0.013864438980817795,
				-0.09110917896032333
			]
		},
		{
			"mesh":2,
			"name":"Rock.001",
			"scale":[
				0.7293680906295776,
				0.28003060817718506,
				0.7293680906295776
			],
			"translation":[
				0.7194508910179138,
				0.9963265061378479,
				-0.15207001566886902
			]
		},
		{
			"mesh":3,
			"name":"Road",
			"translation":[
				0.0004727360501419753,
				-0.0038279748987406492,
				0.0017993985675275326
			]
		},
		{
			"mesh":4,
			"name":"Rock.002",
			"scale":[
				0.7293680906295776,
				0.28003060817718506,
				0.7293680906295776
			],
			"translation":[
				0.29946616291999817,
				0.9963264465332031,
				0.32828131318092346
			]
		},
		{
			"mesh":5,
			"name":"Rock.003",
			"scale":[
				0.7293680906295776,
				0.28003060817718506,
				0.7293680906295776
			],
			"translation":[
				-0.42148250341415405,
				0.9963265657424927,
				0.2320103943347931
			]
		},
		{
			"mesh":6,
			"name":"Rock.004",
			"scale":[
				0.7293680906295776,
				0.28003060817718506,
				0.7293680906295776
			],
			"translation":[
				0.024247586727142334,
				0.9963265061378479,
				-0.7165179252624512
			]
		}
	],
	"materials":[
		{
			"doubleSided":true,
			"name":"Dirt",
			"pbrMetallicRoughness":{
				"baseColorFactor":[
					0.34670209884643555,
					0.16513235867023468,
					0.059511300176382065,
					1
				],
				"metallicFactor":0,
				"roughnessFactor":0.5
			}
		},
		{
			"doubleSided":true,
			"name":"Rock",
			"pbrMetallicRoughness":{
				"baseColorFactor":[
					0.800000011920929,
					0.800000011920929,
					0.800000011920929,
					1
				],
				"metallicFactor":0,
				"roughnessFactor":0.5
			}
		},
		{
			"doubleSided":true,
			"name":"DirtRoad",
			"pbrMetallicRoughness":{
				"baseColorFactor":[
					0.62972092628479,
					0.2824057340621948,
					0.05462447926402092,
					1
				],
				"metallicFactor":0,
				"roughnessFactor":0.5
			}
		},
		{
			"doubleSided":true,
			"name":"Rock.003",
			"pbrMetallicRoughness":{
				"baseColorFactor":[
					0.800000011920929,
					0.800000011920929,
					0.800000011920929,
					1
				],
				"metallicFactor":0,
				"roughnessFactor":0.5
			}
		},
		{
			"doubleSided":true,
			"name":"Rock.004",
			"pbrMetallicRoughness":{
				"baseColorFactor":[
					0.800000011920929,
					0.800000011920929,
					0.800000011920929,
					1
				],
				"metallicFactor":0,
				"roughnessFactor":0.5
			}
		},
		{
			"doubleSided":true,
			"name":"Rock.005",
			"pbrMetallicRoughness":{
				"baseColorFactor":[
					0.800000011920929,
					0.800000011920929,
					0.800000011920929,
					1
				],
				"metallicFactor":0,
				"roughnessFactor":0.5
			}
		}
	],
	"meshes":[
		{
			"name":"Cube.001",
			"primitives":[
				{
					"attributes":{
						"POSITION":0,
						"NORMAL":1,
						"TEXCOORD_0":2
					},
					"indices":3,
					"material":0
				}
			]
		},
		{
			"name":"Cube.003",
			"primitives":[
				{
					"attributes":{
						"POSITION":4,
						"NORMAL":5,
						"TEXCOORD_0":6
					},
					"indices":7,
					"material":0
				}
			]
		},
		{
			"name":"Sphere.001",
			"primitives":[
				{
					"attributes":{
						"POSITION":8,
						"NORMAL":9,
						"TEXCOORD_0":10
					},
					"indices":11,
					"material":1
				}
			]
		},
		{
			"name":"Cube.002",
			"primitives":[
				{
					"attributes":{
						"POSITION":12,
						"NORMAL":13,
						"TEXCOORD_0":14
					},
					"indices":15,
					"material":2
				}
			]
		},
		{
			"name":"Sphere.004",
			"primitives":[
				{
					"attributes":{
						"POSITION":16,
						"NORMAL":17,
						"TEXCOORD_0":18
					},
					"indices":11,
					"material":3
				}
			]
		},
		{
			"name":"Sphere.005",
			"primitives":[
				{
					"attributes":{
						"POSITION":19,
						"NORMAL":20,
						"TEXCOORD_0":21
					},
					"indices":11,
					"material":4
				}
			]
		},
		{
			"name":"Sphere.006",
			"primitives":[
				{
					"attributes":{
						"POSITION":22,
						"NORMAL":23,
						"TEXCOORD_0":24
					},
					"indices":11,
					"material":5
				}
			]
		}
	],
	"accessors":[
		{
			"bufferView":0,
			"componentType":5126,
			"count":68,
			"max":[
				1,
				1.0120384693145752,
				1
			],
			"min":[
				-1,
				-1,
				-1
			],
			"type":"VEC3"
		},
		{
			"bufferView":1,
			"componentType":5126,
			"count":68,
			"type":"VEC3"
		},
		{
			"bufferView":2,
			"componentType":5126,
			"count":68,
			"type":"VEC2"
		},
		{
			"bufferView":3,
			"componentType":5123,
			"count":144,
			"type":"SCALAR"
		},
		{
			"bufferView":4,
			"componentType":5126,
			"count":72,
			"max":[
				1.002159595489502,
				1.0527329444885254,
				1.091444730758667
			],
			"min":[
				-1.002159595489502,
				1.0127084255218506,
				-0.908555269241333
			],
			"type":"VEC3"
		},
		{
			"bufferView":5,
			"componentType":5126,
			"count":72,
			"type":"VEC3"
		},
		{
			"bufferView":6,
			"componentType":5126,
			"count":72,
			"type":"VEC2"
		},
		{
			"bufferView":7,
			"componentType":5123,
			"count":120,
			"type":"SCALAR"
		},
		{
			"bufferView":8,
			"componentType":5126,
			"count":372,
			"max":[
				0.095262810587883,
				0.11000001430511475,
				0.11000001430511475
			],
			"min":[
				-0.09526281803846359,
				-0.11000001430511475,
				-0.11000001430511475
			],
			"type":"VEC3"
		},
		{
			"bufferView":9,
			"componentType":5126,
			"count":372,
			"type":"VEC3"
		},
		{
			"bufferView":10,
			"componentType":5126,
			"count":372,
			"type":"VEC2"
		},
		{
			"bufferView":11,
			"componentType":5123,
			"count":540,
			"type":"SCALAR"
		},
		{
			"bufferView":12,
			"componentType":5126,
			"count":16,
			"max":[
				1,
				1.0120384693145752,
				1
			],
			"min":[
				-1,
				1,
				-1
			],
			"type":"VEC3"
		},
		{
			"bufferView":13,
			"componentType":5126,
			"count":16,
			"type":"VEC3"
		},
		{
			"bufferView":14,
			"componentType":5126,
			"count":16,
			"type":"VEC2"
		},
		{
			"bufferView":15,
			"componentType":5123,
			"count":24,
			"type":"SCALAR"
		},
		{
			"bufferView":16,
			"componentType":5126,
			"count":372,
			"max":[
				0.095262810587883,
				0.11000001430511475,
				0.11000001430511475
			],
			"min":[
				-0.09526281803846359,
				-0.11000001430511475,
				-0.11000001430511475
			],
			"type":"VEC3"
		},
		{
			"bufferView":17,
			"componentType":5126,
			"count":372,
			"type":"VEC3"
		},
		{
			"bufferView":18,
			"componentType":5126,
			"count":372,
			"type":"VEC2"
		},
		{
			"bufferView":19,
			"componentType":5126,
			"count":372,
			"max":[
				0.095262810587883,
				0.11000001430511475,
				0.11000001430511475
			],
			"min":[
				-0.09526281803846359,
				-0.11000001430511475,
				-0.11000001430511475
			],
			"type":"VEC3"
		},
		{
			"bufferView":20,
			"componentType":5126,
			"count":372,
			"type":"VEC3"
		},
		{
			"bufferView":21,
			"componentType":5126,
			"count":372,
			"type":"VEC2"
		},
		{
			"bufferView":22,
			"componentType":5126,
			"count":372,
			"max":[
				0.095262810587883,
				0.11000001430511475,
				0.11000001430511475
			],
			"min":[
				-0.09526281803846359,
				-0.11000001430511475,
				-0.11000001430511475
			],
			"type":"VEC3"
		},
		{
			"bufferView":23,
			"componentType":5126,
			"count":372,
			"type":"VEC3"
		},
		{
			"bufferView":24,
			"componentType":5126,
			"count":372,
			"type":"VEC2"
		}
	],
	"bufferViews":[
		{
			"buffer":0,
			"byteLength":816,
			"byteOffset":0,
			"target":34962
		},
		{
			"buffer":0,
			"byteLength":816,
			"byteOffset":816,
			"target":34962
		},
		{
			"buffer":0,
			"byteLength":544,
			"byteOffset":1632,
			"target":34962
		},
		{
			"buffer":0,
			"byteLength":288,
			"byteOffset":2176,
			"target":34963
		},
		{
			"buffer":0,
			"byteLength":864,
			"byteOffset":2464,
			"target":34962
		},
		{
			"buffer":0,
			"byteLength":864,
			"byteOffset":3328,
			"target":34962
		},
		{
			"buffer":0,
			"byteLength":576,
			"byteOffset":4192,
			"target":34962
		},
		{
			"buffer":0,
			"byteLength":240,
			"byteOffset":4768,
			"target":34963
		},
		{
			"buffer":0,
			"byteLength":4464,
			"byteOffset":5008,
			"target":34962
		},
		{
			"buffer":0,
			"byteLength":4464,
			"byteOffset":9472,
			"target":34962
		},
		{
			"buffer":0,
			"byteLength":2976,
			"byteOffset":13936,
			"target":34962
		},
		{
			"buffer":0,
			"byteLength":1080,
			"byteOffset":16912,
			"target":34963
		},
		{
			"buffer":0,
			"byteLength":192,
			"byteOffset":17992,
			"target":34962
		},
		{
			"buffer":0,
			"byteLength":192,
			"byteOffset":18184,
			"target":34962
		},
		{
			"buffer":0,
			"byteLength":128,
			"byteOffset":18376,
			"target":34962
		},
		{
			"buffer":0,
			"byteLength":48,
			"byteOffset":18504,
			"target":34963
		},
		{
			"buffer":0,
			"byteLength":4464,
			"byteOffset":18552,
			"target":34962
		},
		{
			"buffer":0,
			"byteLength":4464,
			"byteOffset":23016,
			"target":34962
		},
		{
			"buffer":0,
			"byteLength":2976,
			"byteOffset":27480,
			"target":34962
		},
		{
			"buffer":0,
			"byteLength":4464,
			"byteOffset":30456,
			"target":34962
		},
		{
			"buffer":0,
			"byteLength":4464,
			"byteOffset":34920,
			"target":34962
		},
		{
			"buffer":0,
			"byteLength":2976,
			"byteOffset":39384,
			"target":34962
		},
		{
			"buffer":0,
			"byteLength":4464,
			"byteOffset":42360,
			"target":34962
		},
		{
			"buffer":0,
			"byteLength":4464,
			"byteOffset":46824,
			"target":34962
		},
		{
			"buffer":0,
			"byteLength":2976,
			"byteOffset":51288,
			"target":34962
		}
	],
	"buffers":[
		{
			"byteLength":54264,
			"uri":"dirt-road-1.bin"
		}
	]
}
