{
	"asset":{
		"generator":"Khronos glTF Blender I/O v4.1.62",
		"version":"2.0"
	},
	"scene":0,
	"scenes":[
		{
			"name":"Scene",
			"nodes":[
				0,
				1,
				2,
				3,
				4,
				5,
				6
			]
		}
	],
	"nodes":[
		{
			"mesh":0,
			"name":"Block",
			"scale":[
				1,
				0.9590244293212891,
				1
			]
		},
		{
			"mesh":1,
			"name":"FakeUser",
			"scale":[
				-0.01773548126220703,
				-0.01773548126220703,
				-0.01773548126220703
			],
			"translation":[
				-0.0025607459247112274,
				1.578373908996582,
				-0.003795280586928129
			]
		},
		{
			"mesh":2,
			"name":"BorderX1",
			"rotation":[
				0,
				-0.7071068286895752,
				0,
				0.7071068286895752
			],
			"scale":[
				-0.03569221496582031,
				-0.024003831669688225,
				-1
			],
			"translation":[
				0.0010983943939208984,
				1.079832673072815,
				0.9636523723602295
			]
		},
		{
			"mesh":3,
			"name":"BorderX2",
			"rotation":[
				0,
				-0.7071068286895752,
				0,
				0.7071068286895752
			],
			"scale":[
				-0.03569221496582031,
				-0.024003831669688225,
				-1
			],
			"translation":[
				0.0010983943939208984,
				1.079832673072815,
				-0.9635403156280518
			]
		},
		{
			"mesh":4,
			"name":"BorderY1",
			"rotation":[
				0,
				1,
				0,
				0
			],
			"scale":[
				-0.03569221496582031,
				-0.024003831669688225,
				-1
			],
			"translation":[
				0.9637859463691711,
				1.079031229019165,
				0
			]
		},
		{
			"mesh":5,
			"name":"BorderY2",
			"rotation":[
				0,
				1,
				0,
				0
			],
			"scale":[
				-0.03569221496582031,
				-0.024003831669688225,
				-1
			],
			"translation":[
				-0.9635078310966492,
				1.079031229019165,
				0
			]
		},
		{
			"mesh":6,
			"name":"Road",
			"rotation":[
				0,
				1,
				0,
				0
			],
			"scale":[
				-1,
				-0.0475660115480423,
				-1
			],
			"translation":[
				0,
				1.0082449913024902,
				0
			]
		}
	],
	"materials":[
		{
			"doubleSided":true,
			"name":"DirtBlockMaterial",
			"pbrMetallicRoughness":{
				"baseColorFactor":[
					0.34670209884643555,
					0.16513235867023468,
					0.059511300176382065,
					1
				],
				"metallicFactor":0,
				"roughnessFactor":0.5
			}
		},
		{
			"doubleSided":true,
			"name":"SelectedMaterial",
			"pbrMetallicRoughness":{
				"baseColorFactor":[
					0.0007118679932318628,
					0,
					1,
					1
				],
				"metallicFactor":0,
				"roughnessFactor":0.5
			}
		},
		{
			"doubleSided":true,
			"name":"RoadMaterial",
			"pbrMetallicRoughness":{
				"baseColorFactor":[
					0.041876357048749924,
					0.037476930767297745,
					0.036496393382549286,
					1
				],
				"metallicFactor":0,
				"roughnessFactor":0.5
			}
		}
	],
	"meshes":[
		{
			"name":"Cube.001",
			"primitives":[
				{
					"attributes":{
						"POSITION":0,
						"NORMAL":1,
						"TEXCOORD_0":2
					},
					"indices":3,
					"material":0
				}
			]
		},
		{
			"name":"Cube.009",
			"primitives":[
				{
					"attributes":{
						"POSITION":4,
						"NORMAL":5,
						"TEXCOORD_0":6
					},
					"indices":7,
					"material":1
				}
			]
		},
		{
			"name":"Cube.012",
			"primitives":[
				{
					"attributes":{
						"POSITION":8,
						"NORMAL":9,
						"TEXCOORD_0":10
					},
					"indices":7
				}
			]
		},
		{
			"name":"Cube.013",
			"primitives":[
				{
					"attributes":{
						"POSITION":11,
						"NORMAL":12,
						"TEXCOORD_0":13
					},
					"indices":7
				}
			]
		},
		{
			"name":"Cube.010",
			"primitives":[
				{
					"attributes":{
						"POSITION":14,
						"NORMAL":15,
						"TEXCOORD_0":16
					},
					"indices":7
				}
			]
		},
		{
			"name":"Cube.011",
			"primitives":[
				{
					"attributes":{
						"POSITION":17,
						"NORMAL":18,
						"TEXCOORD_0":19
					},
					"indices":7
				}
			]
		},
		{
			"name":"Cube.004",
			"primitives":[
				{
					"attributes":{
						"POSITION":20,
						"NORMAL":21,
						"TEXCOORD_0":22
					},
					"indices":7,
					"material":2
				}
			]
		}
	],
	"accessors":[
		{
			"bufferView":0,
			"componentType":5126,
			"count":64,
			"max":[
				1,
				1,
				1
			],
			"min":[
				-1,
				-1,
				-1
			],
			"type":"VEC3"
		},
		{
			"bufferView":1,
			"componentType":5126,
			"count":64,
			"type":"VEC3"
		},
		{
			"bufferView":2,
			"componentType":5126,
			"count":64,
			"type":"VEC2"
		},
		{
			"bufferView":3,
			"componentType":5123,
			"count":138,
			"type":"SCALAR"
		},
		{
			"bufferView":4,
			"componentType":5126,
			"count":24,
			"max":[
				1,
				1,
				1
			],
			"min":[
				-1,
				-1,
				-1
			],
			"type":"VEC3"
		},
		{
			"bufferView":5,
			"componentType":5126,
			"count":24,
			"type":"VEC3"
		},
		{
			"bufferView":6,
			"componentType":5126,
			"count":24,
			"type":"VEC2"
		},
		{
			"bufferView":7,
			"componentType":5123,
			"count":36,
			"type":"SCALAR"
		},
		{
			"bufferView":8,
			"componentType":5126,
			"count":24,
			"max":[
				1,
				1,
				1
			],
			"min":[
				-1,
				-1,
				-1
			],
			"type":"VEC3"
		},
		{
			"bufferView":9,
			"componentType":5126,
			"count":24,
			"type":"VEC3"
		},
		{
			"bufferView":10,
			"componentType":5126,
			"count":24,
			"type":"VEC2"
		},
		{
			"bufferView":11,
			"componentType":5126,
			"count":24,
			"max":[
				1,
				1,
				1
			],
			"min":[
				-1,
				-1,
				-1
			],
			"type":"VEC3"
		},
		{
			"bufferView":12,
			"componentType":5126,
			"count":24,
			"type":"VEC3"
		},
		{
			"bufferView":13,
			"componentType":5126,
			"count":24,
			"type":"VEC2"
		},
		{
			"bufferView":14,
			"componentType":5126,
			"count":24,
			"max":[
				1,
				1,
				1
			],
			"min":[
				-1,
				-1,
				-1
			],
			"type":"VEC3"
		},
		{
			"bufferView":15,
			"componentType":5126,
			"count":24,
			"type":"VEC3"
		},
		{
			"bufferView":16,
			"componentType":5126,
			"count":24,
			"type":"VEC2"
		},
		{
			"bufferView":17,
			"componentType":5126,
			"count":24,
			"max":[
				1,
				1,
				1
			],
			"min":[
				-1,
				-1,
				-1
			],
			"type":"VEC3"
		},
		{
			"bufferView":18,
			"componentType":5126,
			"count":24,
			"type":"VEC3"
		},
		{
			"bufferView":19,
			"componentType":5126,
			"count":24,
			"type":"VEC2"
		},
		{
			"bufferView":20,
			"componentType":5126,
			"count":24,
			"max":[
				1,
				1,
				1
			],
			"min":[
				-1,
				-1,
				-1
			],
			"type":"VEC3"
		},
		{
			"bufferView":21,
			"componentType":5126,
			"count":24,
			"type":"VEC3"
		},
		{
			"bufferView":22,
			"componentType":5126,
			"count":24,
			"type":"VEC2"
		}
	],
	"bufferViews":[
		{
			"buffer":0,
			"byteLength":768,
			"byteOffset":0,
			"target":34962
		},
		{
			"buffer":0,
			"byteLength":768,
			"byteOffset":768,
			"target":34962
		},
		{
			"buffer":0,
			"byteLength":512,
			"byteOffset":1536,
			"target":34962
		},
		{
			"buffer":0,
			"byteLength":276,
			"byteOffset":2048,
			"target":34963
		},
		{
			"buffer":0,
			"byteLength":288,
			"byteOffset":2324,
			"target":34962
		},
		{
			"buffer":0,
			"byteLength":288,
			"byteOffset":2612,
			"target":34962
		},
		{
			"buffer":0,
			"byteLength":192,
			"byteOffset":2900,
			"target":34962
		},
		{
			"buffer":0,
			"byteLength":72,
			"byteOffset":3092,
			"target":34963
		},
		{
			"buffer":0,
			"byteLength":288,
			"byteOffset":3164,
			"target":34962
		},
		{
			"buffer":0,
			"byteLength":288,
			"byteOffset":3452,
			"target":34962
		},
		{
			"buffer":0,
			"byteLength":192,
			"byteOffset":3740,
			"target":34962
		},
		{
			"buffer":0,
			"byteLength":288,
			"byteOffset":3932,
			"target":34962
		},
		{
			"buffer":0,
			"byteLength":288,
			"byteOffset":4220,
			"target":34962
		},
		{
			"buffer":0,
			"byteLength":192,
			"byteOffset":4508,
			"target":34962
		},
		{
			"buffer":0,
			"byteLength":288,
			"byteOffset":4700,
			"target":34962
		},
		{
			"buffer":0,
			"byteLength":288,
			"byteOffset":4988,
			"target":34962
		},
		{
			"buffer":0,
			"byteLength":192,
			"byteOffset":5276,
			"target":34962
		},
		{
			"buffer":0,
			"byteLength":288,
			"byteOffset":5468,
			"target":34962
		},
		{
			"buffer":0,
			"byteLength":288,
			"byteOffset":5756,
			"target":34962
		},
		{
			"buffer":0,
			"byteLength":192,
			"byteOffset":6044,
			"target":34962
		},
		{
			"buffer":0,
			"byteLength":288,
			"byteOffset":6236,
			"target":34962
		},
		{
			"buffer":0,
			"byteLength":288,
			"byteOffset":6524,
			"target":34962
		},
		{
			"buffer":0,
			"byteLength":192,
			"byteOffset":6812,
			"target":34962
		}
	],
	"buffers":[
		{
			"byteLength":7004,
			"uri":"road-1.bin"
		}
	]
}
