{
	"asset":{
		"generator":"Khronos glTF Blender I/O v4.1.62",
		"version":"2.0"
	},
	"scene":0,
	"scenes":[
		{
			"name":"Scene",
			"nodes":[
				0,
				1,
				2,
				3,
				4,
				5,
				6,
				7,
				8,
				9
			]
		}
	],
	"nodes":[
		{
			"mesh":0,
			"name":"Chimney",
			"scale":[
				0.42517659068107605,
				1.9043164253234863,
				0.3392479419708252
			],
			"translation":[
				-5.775091171264648,
				5.011751651763916,
				-1.2681286334991455
			]
		},
		{
			"mesh":1,
			"name":"ChimneyTop",
			"scale":[
				0.3816836178302765,
				1.7095165252685547,
				0.30454498529434204
			],
			"translation":[
				-5.775091171264648,
				5.011751651763916,
				-1.2681286334991455
			]
		},
		{
			"mesh":2,
			"name":"Door",
			"scale":[
				1.4851503372192383,
				1.184999942779541,
				1.184999942779541
			],
			"translation":[
				-1.7921926975250244,
				1.817500114440918,
				-4.001566410064697
			]
		},
		{
			"mesh":3,
			"name":"DoorKnob",
			"scale":[
				1.4851503372192383,
				1.184999942779541,
				1.184999942779541
			],
			"translation":[
				-1.7921926975250244,
				1.817500114440918,
				-4.001566410064697
			]
		},
		{
			"mesh":4,
			"name":"Roof",
			"scale":[
				2.9703006744384766,
				2.0737497806549072,
				3.9656031131744385
			],
			"translation":[
				-4.659987449645996,
				2.103851318359375,
				-4.001566410064697
			]
		},
		{
			"mesh":5,
			"name":"Stairs",
			"scale":[
				1.4851503372192383,
				1.184999942779541,
				1.184999942779541
			],
			"translation":[
				-4.659987449645996,
				2.103851318359375,
				-4.001566410064697
			]
		},
		{
			"mesh":6,
			"name":"Step",
			"scale":[
				1.4851503372192383,
				1.184999942779541,
				1.184999942779541
			],
			"translation":[
				-4.659987449645996,
				2.103851318359375,
				-4.001566410064697
			]
		},
		{
			"mesh":7,
			"name":"Walls",
			"scale":[
				1.4851503372192383,
				1.184999942779541,
				1.184999942779541
			],
			"translation":[
				-4.659987449645996,
				2.103851318359375,
				-4.001566410064697
			]
		},
		{
			"mesh":8,
			"name":"WindowFrames",
			"scale":[
				1.4851503372192383,
				1.184999942779541,
				1.184999942779541
			],
			"translation":[
				-4.659987449645996,
				0.030101299285888672,
				-4.001566410064697
			]
		},
		{
			"mesh":9,
			"name":"WindowGlasses",
			"scale":[
				1.4851503372192383,
				1.184999942779541,
				1.184999942779541
			],
			"translation":[
				-4.659987449645996,
				0.030101299285888672,
				-4.001566410064697
			]
		}
	],
	"materials":[
		{
			"doubleSided":true,
			"name":"walls",
			"pbrMetallicRoughness":{
				"baseColorFactor":[
					0.7990989089012146,
					0.006512002553790808,
					0,
					1
				],
				"metallicFactor":0,
				"roughnessFactor":0.5
			}
		},
		{
			"doubleSided":true,
			"name":"Door",
			"pbrMetallicRoughness":{
				"baseColorFactor":[
					0.47352883219718933,
					0.24228133261203766,
					0.11953854560852051,
					1
				],
				"metallicFactor":0,
				"roughnessFactor":0.5
			}
		},
		{
			"doubleSided":true,
			"name":"Door knob",
			"pbrMetallicRoughness":{
				"baseColorFactor":[
					0.47874677181243896,
					0.4962344467639923,
					0.011310945264995098,
					1
				],
				"metallicFactor":0,
				"roughnessFactor":0.5
			}
		},
		{
			"doubleSided":true,
			"name":"Material.001",
			"pbrMetallicRoughness":{
				"baseColorFactor":[
					0.3515307605266571,
					0.0761854499578476,
					0.03688948228955269,
					1
				],
				"metallicFactor":0,
				"roughnessFactor":0.5
			}
		},
		{
			"doubleSided":true,
			"name":"Material",
			"pbrMetallicRoughness":{
				"baseColorFactor":[
					0.9646809697151184,
					0.371238112449646,
					0.1559266299009323,
					1
				],
				"metallicFactor":0,
				"roughnessFactor":0.20000000298023224
			}
		},
		{
			"doubleSided":true,
			"name":"gray",
			"pbrMetallicRoughness":{
				"baseColorFactor":[
					0.800000011920929,
					0.800000011920929,
					0.800000011920929,
					1
				],
				"metallicFactor":0,
				"roughnessFactor":0.5
			}
		},
		{
			"doubleSided":true,
			"name":"Glass",
			"pbrMetallicRoughness":{
				"baseColorFactor":[
					0,
					0.2658997178077698,
					0.8005292415618896,
					1
				],
				"metallicFactor":0,
				"roughnessFactor":0.5
			}
		}
	],
	"meshes":[
		{
			"name":"Chimney",
			"primitives":[
				{
					"attributes":{
						"POSITION":0,
						"NORMAL":1,
						"TEXCOORD_0":2
					},
					"indices":3,
					"material":0
				}
			]
		},
		{
			"name":"ChimneyTop",
			"primitives":[
				{
					"attributes":{
						"POSITION":4,
						"NORMAL":5,
						"TEXCOORD_0":6
					},
					"indices":7,
					"material":0
				}
			]
		},
		{
			"name":"Door",
			"primitives":[
				{
					"attributes":{
						"POSITION":8,
						"NORMAL":9,
						"TEXCOORD_0":10
					},
					"indices":11,
					"material":1
				}
			]
		},
		{
			"name":"DoorKnob",
			"primitives":[
				{
					"attributes":{
						"POSITION":12,
						"NORMAL":13,
						"TEXCOORD_0":14
					},
					"indices":15,
					"material":2
				}
			]
		},
		{
			"name":"Roof",
			"primitives":[
				{
					"attributes":{
						"POSITION":16,
						"NORMAL":17,
						"TEXCOORD_0":18
					},
					"indices":19,
					"material":3
				}
			]
		},
		{
			"name":"Stairs",
			"primitives":[
				{
					"attributes":{
						"POSITION":20,
						"NORMAL":21,
						"TEXCOORD_0":22
					},
					"indices":23,
					"material":4
				}
			]
		},
		{
			"name":"Step",
			"primitives":[
				{
					"attributes":{
						"POSITION":24,
						"NORMAL":25,
						"TEXCOORD_0":26
					},
					"indices":27,
					"material":3
				}
			]
		},
		{
			"name":"Walls",
			"primitives":[
				{
					"attributes":{
						"POSITION":28,
						"NORMAL":29,
						"TEXCOORD_0":30
					},
					"indices":31,
					"material":0
				}
			]
		},
		{
			"name":"WindowFrames",
			"primitives":[
				{
					"attributes":{
						"POSITION":32,
						"NORMAL":33,
						"TEXCOORD_0":34
					},
					"indices":35,
					"material":5
				}
			]
		},
		{
			"name":"WindowGlasses",
			"primitives":[
				{
					"attributes":{
						"POSITION":36,
						"NORMAL":37,
						"TEXCOORD_0":38
					},
					"indices":39,
					"material":6
				}
			]
		}
	],
	"accessors":[
		{
			"bufferView":0,
			"componentType":5126,
			"count":16,
			"max":[
				1,
				1,
				1
			],
			"min":[
				-1,
				-1,
				-1
			],
			"type":"VEC3"
		},
		{
			"bufferView":1,
			"componentType":5126,
			"count":16,
			"type":"VEC3"
		},
		{
			"bufferView":2,
			"componentType":5126,
			"count":16,
			"type":"VEC2"
		},
		{
			"bufferView":3,
			"componentType":5123,
			"count":24,
			"type":"SCALAR"
		},
		{
			"bufferView":4,
			"componentType":5126,
			"count":54,
			"max":[
				1.6044577360153198,
				1.2822421789169312,
				1.6044583320617676
			],
			"min":[
				-1.6044577360153198,
				1,
				-1.604457139968872
			],
			"type":"VEC3"
		},
		{
			"bufferView":5,
			"componentType":5126,
			"count":54,
			"type":"VEC3"
		},
		{
			"bufferView":6,
			"componentType":5126,
			"count":54,
			"type":"VEC2"
		},
		{
			"bufferView":7,
			"componentType":5123,
			"count":102,
			"type":"SCALAR"
		},
		{
			"bufferView":8,
			"componentType":5126,
			"count":40,
			"max":[
				0.157279372215271,
				1.3289049863815308,
				0.6513867378234863
			],
			"min":[
				-0.157279372215271,
				-1,
				-0.6513867378234863
			],
			"type":"VEC3"
		},
		{
			"bufferView":9,
			"componentType":5126,
			"count":40,
			"type":"VEC3"
		},
		{
			"bufferView":10,
			"componentType":5126,
			"count":40,
			"type":"VEC2"
		},
		{
			"bufferView":11,
			"componentType":5123,
			"count":66,
			"type":"SCALAR"
		},
		{
			"bufferView":12,
			"componentType":5126,
			"count":136,
			"max":[
				0.11989425867795944,
				0.12720727920532227,
				-0.31192484498023987
			],
			"min":[
				-0.08304167538881302,
				-0.014330387115478516,
				-0.4534626603126526
			],
			"type":"VEC3"
		},
		{
			"bufferView":13,
			"componentType":5126,
			"count":136,
			"type":"VEC3"
		},
		{
			"bufferView":14,
			"componentType":5126,
			"count":136,
			"type":"VEC2"
		},
		{
			"bufferView":15,
			"componentType":5123,
			"count":210,
			"type":"SCALAR"
		},
		{
			"bufferView":16,
			"componentType":5126,
			"count":84,
			"max":[
				1.2174811363220215,
				2.143223285675049,
				1
			],
			"min":[
				-1.2174811363220215,
				0.8564215898513794,
				-1
			],
			"type":"VEC3"
		},
		{
			"bufferView":17,
			"componentType":5126,
			"count":84,
			"type":"VEC3"
		},
		{
			"bufferView":18,
			"componentType":5126,
			"count":84,
			"type":"VEC2"
		},
		{
			"bufferView":19,
			"componentType":5123,
			"count":168,
			"type":"SCALAR"
		},
		{
			"bufferView":20,
			"componentType":5126,
			"count":30,
			"max":[
				3.126892328262329,
				-1.242390513420105,
				0.7763392925262451
			],
			"min":[
				2.25,
				-1.7798593044281006,
				-0.7763392925262451
			],
			"type":"VEC3"
		},
		{
			"bufferView":21,
			"componentType":5126,
			"count":30,
			"type":"VEC3"
		},
		{
			"bufferView":22,
			"componentType":5126,
			"count":30,
			"type":"VEC2"
		},
		{
			"bufferView":23,
			"componentType":5123,
			"count":54,
			"type":"SCALAR"
		},
		{
			"bufferView":24,
			"componentType":5126,
			"count":40,
			"max":[
				2.25,
				-1.242390513420105,
				3.375
			],
			"min":[
				-2.25,
				-1.7798593044281006,
				-3.375
			],
			"type":"VEC3"
		},
		{
			"bufferView":25,
			"componentType":5126,
			"count":40,
			"type":"VEC3"
		},
		{
			"bufferView":26,
			"componentType":5126,
			"count":40,
			"type":"VEC2"
		},
		{
			"bufferView":27,
			"componentType":5123,
			"count":66,
			"type":"SCALAR"
		},
		{
			"bufferView":28,
			"componentType":5126,
			"count":66,
			"max":[
				2,
				3.5546438694000244,
				3
			],
			"min":[
				-2,
				-1.2722499370574951,
				-3
			],
			"type":"VEC3"
		},
		{
			"bufferView":29,
			"componentType":5126,
			"count":66,
			"type":"VEC3"
		},
		{
			"bufferView":30,
			"componentType":5126,
			"count":66,
			"type":"VEC2"
		},
		{
			"bufferView":31,
			"componentType":5123,
			"count":144,
			"type":"SCALAR"
		},
		{
			"bufferView":32,
			"componentType":5126,
			"count":248,
			"max":[
				1.8966453075408936,
				2.8372604846954346,
				2.552422523498535
			],
			"min":[
				1.8060872554779053,
				1.4318950176239014,
				-2.552422523498535
			],
			"type":"VEC3"
		},
		{
			"bufferView":33,
			"componentType":5126,
			"count":248,
			"type":"VEC3"
		},
		{
			"bufferView":34,
			"componentType":5126,
			"count":248,
			"type":"VEC2"
		},
		{
			"bufferView":35,
			"componentType":5123,
			"count":540,
			"type":"SCALAR"
		},
		{
			"bufferView":36,
			"componentType":5126,
			"count":32,
			"max":[
				1.8060872554779053,
				2.705460548400879,
				2.4206225872039795
			],
			"min":[
				1.8060872554779053,
				1.563694953918457,
				-2.4206225872039795
			],
			"type":"VEC3"
		},
		{
			"bufferView":37,
			"componentType":5126,
			"count":32,
			"type":"VEC3"
		},
		{
			"bufferView":38,
			"componentType":5126,
			"count":32,
			"type":"VEC2"
		},
		{
			"bufferView":39,
			"componentType":5123,
			"count":48,
			"type":"SCALAR"
		}
	],
	"bufferViews":[
		{
			"buffer":0,
			"byteLength":192,
			"byteOffset":0,
			"target":34962
		},
		{
			"buffer":0,
			"byteLength":192,
			"byteOffset":192,
			"target":34962
		},
		{
			"buffer":0,
			"byteLength":128,
			"byteOffset":384,
			"target":34962
		},
		{
			"buffer":0,
			"byteLength":48,
			"byteOffset":512,
			"target":34963
		},
		{
			"buffer":0,
			"byteLength":648,
			"byteOffset":560,
			"target":34962
		},
		{
			"buffer":0,
			"byteLength":648,
			"byteOffset":1208,
			"target":34962
		},
		{
			"buffer":0,
			"byteLength":432,
			"byteOffset":1856,
			"target":34962
		},
		{
			"buffer":0,
			"byteLength":204,
			"byteOffset":2288,
			"target":34963
		},
		{
			"buffer":0,
			"byteLength":480,
			"byteOffset":2492,
			"target":34962
		},
		{
			"buffer":0,
			"byteLength":480,
			"byteOffset":2972,
			"target":34962
		},
		{
			"buffer":0,
			"byteLength":320,
			"byteOffset":3452,
			"target":34962
		},
		{
			"buffer":0,
			"byteLength":132,
			"byteOffset":3772,
			"target":34963
		},
		{
			"buffer":0,
			"byteLength":1632,
			"byteOffset":3904,
			"target":34962
		},
		{
			"buffer":0,
			"byteLength":1632,
			"byteOffset":5536,
			"target":34962
		},
		{
			"buffer":0,
			"byteLength":1088,
			"byteOffset":7168,
			"target":34962
		},
		{
			"buffer":0,
			"byteLength":420,
			"byteOffset":8256,
			"target":34963
		},
		{
			"buffer":0,
			"byteLength":1008,
			"byteOffset":8676,
			"target":34962
		},
		{
			"buffer":0,
			"byteLength":1008,
			"byteOffset":9684,
			"target":34962
		},
		{
			"buffer":0,
			"byteLength":672,
			"byteOffset":10692,
			"target":34962
		},
		{
			"buffer":0,
			"byteLength":336,
			"byteOffset":11364,
			"target":34963
		},
		{
			"buffer":0,
			"byteLength":360,
			"byteOffset":11700,
			"target":34962
		},
		{
			"buffer":0,
			"byteLength":360,
			"byteOffset":12060,
			"target":34962
		},
		{
			"buffer":0,
			"byteLength":240,
			"byteOffset":12420,
			"target":34962
		},
		{
			"buffer":0,
			"byteLength":108,
			"byteOffset":12660,
			"target":34963
		},
		{
			"buffer":0,
			"byteLength":480,
			"byteOffset":12768,
			"target":34962
		},
		{
			"buffer":0,
			"byteLength":480,
			"byteOffset":13248,
			"target":34962
		},
		{
			"buffer":0,
			"byteLength":320,
			"byteOffset":13728,
			"target":34962
		},
		{
			"buffer":0,
			"byteLength":132,
			"byteOffset":14048,
			"target":34963
		},
		{
			"buffer":0,
			"byteLength":792,
			"byteOffset":14180,
			"target":34962
		},
		{
			"buffer":0,
			"byteLength":792,
			"byteOffset":14972,
			"target":34962
		},
		{
			"buffer":0,
			"byteLength":528,
			"byteOffset":15764,
			"target":34962
		},
		{
			"buffer":0,
			"byteLength":288,
			"byteOffset":16292,
			"target":34963
		},
		{
			"buffer":0,
			"byteLength":2976,
			"byteOffset":16580,
			"target":34962
		},
		{
			"buffer":0,
			"byteLength":2976,
			"byteOffset":19556,
			"target":34962
		},
		{
			"buffer":0,
			"byteLength":1984,
			"byteOffset":22532,
			"target":34962
		},
		{
			"buffer":0,
			"byteLength":1080,
			"byteOffset":24516,
			"target":34963
		},
		{
			"buffer":0,
			"byteLength":384,
			"byteOffset":25596,
			"target":34962
		},
		{
			"buffer":0,
			"byteLength":384,
			"byteOffset":25980,
			"target":34962
		},
		{
			"buffer":0,
			"byteLength":256,
			"byteOffset":26364,
			"target":34962
		},
		{
			"buffer":0,
			"byteLength":96,
			"byteOffset":26620,
			"target":34963
		}
	],
	"buffers":[
		{
			"byteLength":26716,
			"uri":"red-1.bin"
		}
	]
}
