{
	"asset":{
		"generator":"Khronos glTF Blender I/O v4.1.62",
		"version":"2.0"
	},
	"extensionsUsed":[
		"KHR_materials_unlit"
	],
	"scene":0,
	"scenes":[
		{
			"name":"Scene",
			"nodes":[
				0,
				1,
				2,
				3,
				4,
				5,
				6,
				7
			]
		}
	],
	"nodes":[
		{
			"mesh":0,
			"name":"Cube"
		},
		{
			"mesh":1,
			"name":"Grass"
		},
		{
			"mesh":2,
			"name":"Grass 1",
			"rotation":[
				0,
				-1,
				0,
				4.371139183945161e-08
			],
			"scale":[
				0.3418067991733551,
				0.3418067991733551,
				0.3418067991733551
			],
			"translation":[
				-0.09235000610351562,
				0.7940853238105774,
				-0.4873795509338379
			]
		},
		{
			"mesh":3,
			"name":"Grass 1.001",
			"scale":[
				0.36531904339790344,
				0.36531904339790344,
				0.36531904339790344
			],
			"translation":[
				0.08862018585205078,
				0.8338773846626282,
				0.1410832405090332
			]
		},
		{
			"mesh":4,
			"name":"Grass 1.002",
			"scale":[
				0.5537177324295044,
				0.5537177324295044,
				0.5537177324295044
			],
			"translation":[
				0.41066575050354004,
				0.6412010788917542,
				0.1513223648071289
			]
		},
		{
			"mesh":5,
			"name":"Grass 1.003",
			"scale":[
				0.5537177324295044,
				0.5537177324295044,
				0.5537177324295044
			],
			"translation":[
				0.41066575050354004,
				0.6412010788917542,
				0.1513223648071289
			]
		},
		{
			"mesh":6,
			"name":"Sphere",
			"scale":[
				1,
				0.5582396984100342,
				1
			],
			"translation":[
				-0.49731409549713135,
				1.0060696601867676,
				0.3095405697822571
			]
		},
		{
			"mesh":7,
			"name":"Sphere.001",
			"scale":[
				0.7293680906295776,
				0.28003060817718506,
				0.7293680906295776
			],
			"translation":[
				0.45709484815597534,
				0.9995962381362915,
				0.29275527596473694
			]
		}
	],
	"materials":[
		{
			"doubleSided":true,
			"name":"Dirt",
			"pbrMetallicRoughness":{
				"baseColorFactor":[
					0.34670209884643555,
					0.16513235867023468,
					0.059511300176382065,
					1
				],
				"metallicFactor":0,
				"roughnessFactor":0.5
			}
		},
		{
			"doubleSided":true,
			"extensions":{
				"KHR_materials_unlit":{}
			},
			"name":"Grass",
			"pbrMetallicRoughness":{
				"baseColorFactor":[
					0.412540078163147,
					0.5149180889129639,
					0.12213893234729767,
					1
				],
				"metallicFactor":0,
				"roughnessFactor":0.9
			}
		},
		{
			"doubleSided":true,
			"name":"Grass-tall",
			"pbrMetallicRoughness":{
				"baseColorFactor":[
					0.35885700583457947,
					0.3890000879764557,
					0.15442705154418945,
					1
				],
				"metallicFactor":0,
				"roughnessFactor":0.5
			}
		},
		{
			"doubleSided":true,
			"name":"Grass-tall.001",
			"pbrMetallicRoughness":{
				"baseColorFactor":[
					0.35885700583457947,
					0.3890000879764557,
					0.15442705154418945,
					1
				],
				"metallicFactor":0,
				"roughnessFactor":0.5
			}
		},
		{
			"doubleSided":true,
			"name":"Rock.001",
			"pbrMetallicRoughness":{
				"baseColorFactor":[
					0.800000011920929,
					0.800000011920929,
					0.800000011920929,
					1
				],
				"metallicFactor":0,
				"roughnessFactor":0.5
			}
		},
		{
			"doubleSided":true,
			"name":"Rock",
			"pbrMetallicRoughness":{
				"baseColorFactor":[
					0.800000011920929,
					0.800000011920929,
					0.800000011920929,
					1
				],
				"metallicFactor":0,
				"roughnessFactor":0.5
			}
		}
	],
	"meshes":[
		{
			"name":"Cube",
			"primitives":[
				{
					"attributes":{
						"POSITION":0,
						"NORMAL":1,
						"TEXCOORD_0":2
					},
					"indices":3,
					"material":0
				}
			]
		},
		{
			"name":"Cube.001",
			"primitives":[
				{
					"attributes":{
						"POSITION":4,
						"NORMAL":5,
						"TEXCOORD_0":6
					},
					"indices":7,
					"material":1
				}
			]
		},
		{
			"name":"Cube.002",
			"primitives":[
				{
					"attributes":{
						"POSITION":8,
						"NORMAL":9,
						"TEXCOORD_0":10
					},
					"indices":11,
					"material":2
				}
			]
		},
		{
			"name":"Cube.003",
			"primitives":[
				{
					"attributes":{
						"POSITION":12,
						"NORMAL":13,
						"TEXCOORD_0":14
					},
					"indices":11,
					"material":2
				}
			]
		},
		{
			"name":"Cube.004",
			"primitives":[
				{
					"attributes":{
						"POSITION":15,
						"NORMAL":16,
						"TEXCOORD_0":17
					},
					"indices":18,
					"material":2
				}
			]
		},
		{
			"name":"Cube.005",
			"primitives":[
				{
					"attributes":{
						"POSITION":19,
						"NORMAL":20,
						"TEXCOORD_0":21
					},
					"indices":18,
					"material":3
				}
			]
		},
		{
			"name":"Sphere.002",
			"primitives":[
				{
					"attributes":{
						"POSITION":22,
						"NORMAL":23,
						"TEXCOORD_0":24
					},
					"indices":25,
					"material":4
				}
			]
		},
		{
			"name":"Sphere.003",
			"primitives":[
				{
					"attributes":{
						"POSITION":26,
						"NORMAL":27,
						"TEXCOORD_0":28
					},
					"indices":25,
					"material":5
				}
			]
		}
	],
	"accessors":[
		{
			"bufferView":0,
			"componentType":5126,
			"count":64,
			"max":[
				1,
				1,
				1
			],
			"min":[
				-1,
				-1,
				-1
			],
			"type":"VEC3"
		},
		{
			"bufferView":1,
			"componentType":5126,
			"count":64,
			"type":"VEC3"
		},
		{
			"bufferView":2,
			"componentType":5126,
			"count":64,
			"type":"VEC2"
		},
		{
			"bufferView":3,
			"componentType":5123,
			"count":138,
			"type":"SCALAR"
		},
		{
			"bufferView":4,
			"componentType":5126,
			"count":4,
			"max":[
				1,
				1,
				1
			],
			"min":[
				-1,
				1,
				-1
			],
			"type":"VEC3"
		},
		{
			"bufferView":5,
			"componentType":5126,
			"count":4,
			"type":"VEC3"
		},
		{
			"bufferView":6,
			"componentType":5126,
			"count":4,
			"type":"VEC2"
		},
		{
			"bufferView":7,
			"componentType":5123,
			"count":6,
			"type":"SCALAR"
		},
		{
			"bufferView":8,
			"componentType":5126,
			"count":12,
			"max":[
				-0.4169910252094269,
				1.612101435661316,
				-0.772549569606781
			],
			"min":[
				-0.8242110013961792,
				0.5,
				-1.2814449071884155
			],
			"type":"VEC3"
		},
		{
			"bufferView":9,
			"componentType":5126,
			"count":12,
			"type":"VEC3"
		},
		{
			"bufferView":10,
			"componentType":5126,
			"count":12,
			"type":"VEC2"
		},
		{
			"bufferView":11,
			"componentType":5123,
			"count":12,
			"type":"SCALAR"
		},
		{
			"bufferView":12,
			"componentType":5126,
			"count":12,
			"max":[
				-0.5080689787864685,
				1.0213335752487183,
				-0.9062337279319763
			],
			"min":[
				-0.7693603038787842,
				0.4000000059604645,
				-1.2651351690292358
			],
			"type":"VEC3"
		},
		{
			"bufferView":13,
			"componentType":5126,
			"count":12,
			"type":"VEC3"
		},
		{
			"bufferView":14,
			"componentType":5126,
			"count":12,
			"type":"VEC2"
		},
		{
			"bufferView":15,
			"componentType":5126,
			"count":12,
			"max":[
				-0.4322323203086853,
				1.3960397243499756,
				-0.795847475528717
			],
			"min":[
				-0.7901235818862915,
				0.5,
				-1.1319308280944824
			],
			"type":"VEC3"
		},
		{
			"bufferView":16,
			"componentType":5126,
			"count":12,
			"type":"VEC3"
		},
		{
			"bufferView":17,
			"componentType":5126,
			"count":12,
			"type":"VEC2"
		},
		{
			"bufferView":18,
			"componentType":5123,
			"count":12,
			"type":"SCALAR"
		},
		{
			"bufferView":19,
			"componentType":5126,
			"count":12,
			"max":[
				-0.4322323203086853,
				1.3960397243499756,
				-0.795847475528717
			],
			"min":[
				-0.7901235818862915,
				0.5,
				-1.1319308280944824
			],
			"type":"VEC3"
		},
		{
			"bufferView":20,
			"componentType":5126,
			"count":12,
			"type":"VEC3"
		},
		{
			"bufferView":21,
			"componentType":5126,
			"count":12,
			"type":"VEC2"
		},
		{
			"bufferView":22,
			"componentType":5126,
			"count":372,
			"max":[
				0.095262810587883,
				0.11000001430511475,
				0.11000001430511475
			],
			"min":[
				-0.09526281803846359,
				-0.11000001430511475,
				-0.11000001430511475
			],
			"type":"VEC3"
		},
		{
			"bufferView":23,
			"componentType":5126,
			"count":372,
			"type":"VEC3"
		},
		{
			"bufferView":24,
			"componentType":5126,
			"count":372,
			"type":"VEC2"
		},
		{
			"bufferView":25,
			"componentType":5123,
			"count":540,
			"type":"SCALAR"
		},
		{
			"bufferView":26,
			"componentType":5126,
			"count":372,
			"max":[
				0.095262810587883,
				0.11000001430511475,
				0.11000001430511475
			],
			"min":[
				-0.09526281803846359,
				-0.11000001430511475,
				-0.11000001430511475
			],
			"type":"VEC3"
		},
		{
			"bufferView":27,
			"componentType":5126,
			"count":372,
			"type":"VEC3"
		},
		{
			"bufferView":28,
			"componentType":5126,
			"count":372,
			"type":"VEC2"
		}
	],
	"bufferViews":[
		{
			"buffer":0,
			"byteLength":768,
			"byteOffset":0,
			"target":34962
		},
		{
			"buffer":0,
			"byteLength":768,
			"byteOffset":768,
			"target":34962
		},
		{
			"buffer":0,
			"byteLength":512,
			"byteOffset":1536,
			"target":34962
		},
		{
			"buffer":0,
			"byteLength":276,
			"byteOffset":2048,
			"target":34963
		},
		{
			"buffer":0,
			"byteLength":48,
			"byteOffset":2324,
			"target":34962
		},
		{
			"buffer":0,
			"byteLength":48,
			"byteOffset":2372,
			"target":34962
		},
		{
			"buffer":0,
			"byteLength":32,
			"byteOffset":2420,
			"target":34962
		},
		{
			"buffer":0,
			"byteLength":12,
			"byteOffset":2452,
			"target":34963
		},
		{
			"buffer":0,
			"byteLength":144,
			"byteOffset":2464,
			"target":34962
		},
		{
			"buffer":0,
			"byteLength":144,
			"byteOffset":2608,
			"target":34962
		},
		{
			"buffer":0,
			"byteLength":96,
			"byteOffset":2752,
			"target":34962
		},
		{
			"buffer":0,
			"byteLength":24,
			"byteOffset":2848,
			"target":34963
		},
		{
			"buffer":0,
			"byteLength":144,
			"byteOffset":2872,
			"target":34962
		},
		{
			"buffer":0,
			"byteLength":144,
			"byteOffset":3016,
			"target":34962
		},
		{
			"buffer":0,
			"byteLength":96,
			"byteOffset":3160,
			"target":34962
		},
		{
			"buffer":0,
			"byteLength":144,
			"byteOffset":3256,
			"target":34962
		},
		{
			"buffer":0,
			"byteLength":144,
			"byteOffset":3400,
			"target":34962
		},
		{
			"buffer":0,
			"byteLength":96,
			"byteOffset":3544,
			"target":34962
		},
		{
			"buffer":0,
			"byteLength":24,
			"byteOffset":3640,
			"target":34963
		},
		{
			"buffer":0,
			"byteLength":144,
			"byteOffset":3664,
			"target":34962
		},
		{
			"buffer":0,
			"byteLength":144,
			"byteOffset":3808,
			"target":34962
		},
		{
			"buffer":0,
			"byteLength":96,
			"byteOffset":3952,
			"target":34962
		},
		{
			"buffer":0,
			"byteLength":4464,
			"byteOffset":4048,
			"target":34962
		},
		{
			"buffer":0,
			"byteLength":4464,
			"byteOffset":8512,
			"target":34962
		},
		{
			"buffer":0,
			"byteLength":2976,
			"byteOffset":12976,
			"target":34962
		},
		{
			"buffer":0,
			"byteLength":1080,
			"byteOffset":15952,
			"target":34963
		},
		{
			"buffer":0,
			"byteLength":4464,
			"byteOffset":17032,
			"target":34962
		},
		{
			"buffer":0,
			"byteLength":4464,
			"byteOffset":21496,
			"target":34962
		},
		{
			"buffer":0,
			"byteLength":2976,
			"byteOffset":25960,
			"target":34962
		}
	],
	"buffers":[
		{
			"byteLength":28936,
			"uri":"grass-tile-1.bin"
		}
	]
}
