{
	"asset":{
		"generator":"Khronos glTF Blender I/O v4.1.62",
		"version":"2.0"
	},
	"scene":0,
	"scenes":[
		{
			"name":"Scene",
			"nodes":[
				0,
				1,
				2,
				3,
				4,
				5,
				6,
				7,
				8,
				9,
				10,
				11
			]
		}
	],
	"nodes":[
		{
			"mesh":0,
			"name":"Block",
			"scale":[
				1,
				0.9590244293212891,
				1
			]
		},
		{
			"mesh":1,
			"name":"Grass",
			"rotation":[
				0,
				1,
				0,
				0
			],
			"scale":[
				-1,
				-0.03999999910593033,
				-1
			],
			"translation":[
				0,
				0.998162031173706,
				0
			]
		},
		{
			"mesh":2,
			"name":"RockM01",
			"scale":[
				1,
				0.5582396984100342,
				1
			],
			"translation":[
				-0.49731409549713135,
				1.0432565212249756,
				0.3095405697822571
			]
		},
		{
			"mesh":3,
			"name":"TallGrassL01",
			"scale":[
				0.5537177324295044,
				0.5537177324295044,
				0.5537177324295044
			],
			"translation":[
				0.41066575050354004,
				0.7440184354782104,
				0.1513223648071289
			]
		},
		{
			"mesh":4,
			"name":"TallGrassM01",
			"rotation":[
				0,
				-1,
				0,
				4.371139183945161e-08
			],
			"scale":[
				0.3418067991733551,
				0.3418067991733551,
				0.3418067991733551
			],
			"translation":[
				-0.09235000610351562,
				0.8465940356254578,
				-0.4873795509338379
			]
		},
		{
			"mesh":5,
			"name":"TallGrassS01",
			"scale":[
				0.36531904339790344,
				0.36531904339790344,
				0.36531904339790344
			],
			"translation":[
				0.08862018585205078,
				0.8776553869247437,
				0.1410832405090332
			]
		},
		{
			"mesh":6,
			"name":"RockS01",
			"rotation":[
				0,
				1,
				0,
				0
			],
			"scale":[
				-0.7417338490486145,
				-0.4089491069316864,
				-0.7417338490486145
			],
			"translation":[
				0.5917248725891113,
				1.0432565212249756,
				0.6189619302749634
			]
		},
		{
			"mesh":7,
			"name":"TallGrassL02",
			"rotation":[
				0,
				0.9984491467475891,
				0,
				0.05567131191492081
			],
			"scale":[
				0.5537177324295044,
				0.5537177324295044,
				0.5537177324295044
			],
			"translation":[
				-0.47745686769485474,
				0.591225802898407,
				-0.5605533719062805
			]
		},
		{
			"mesh":8,
			"name":"TallGrassM02",
			"rotation":[
				0,
				0.2973722815513611,
				0,
				0.9547616243362427
			],
			"scale":[
				0.3418067991733551,
				0.3418067991733551,
				0.3418067991733551
			],
			"translation":[
				0.05012619495391846,
				0.6774318218231201,
				0.293212890625
			]
		},
		{
			"mesh":9,
			"name":"RockM02",
			"scale":[
				1,
				0.5582396984100342,
				1
			],
			"translation":[
				0.3251637816429138,
				1.0432565212249756,
				-0.32600563764572144
			]
		},
		{
			"mesh":10,
			"name":"RockS02",
			"rotation":[
				0,
				1,
				0,
				0
			],
			"scale":[
				-0.7417338490486145,
				-0.4089491069316864,
				-0.7417338490486145
			],
			"translation":[
				0.1504659652709961,
				1.0432565212249756,
				0.49471914768218994
			]
		},
		{
			"mesh":11,
			"name":"FakeUser",
			"scale":[
				-0.01773548126220703,
				-0.01773548126220703,
				-0.01773548126220703
			],
			"translation":[
				-0.0025607459247112274,
				1.578373908996582,
				-0.003795280586928129
			]
		}
	],
	"animations":[
		{
			"channels":[
				{
					"sampler":0,
					"target":{
						"node":1,
						"path":"translation"
					}
				},
				{
					"sampler":1,
					"target":{
						"node":1,
						"path":"rotation"
					}
				},
				{
					"sampler":2,
					"target":{
						"node":1,
						"path":"scale"
					}
				}
			],
			"name":"Cube.001Action",
			"samplers":[
				{
					"input":42,
					"interpolation":"LINEAR",
					"output":43
				},
				{
					"input":42,
					"interpolation":"LINEAR",
					"output":44
				},
				{
					"input":42,
					"interpolation":"LINEAR",
					"output":45
				}
			]
		}
	],
	"materials":[
		{
			"doubleSided":true,
			"name":"DirtBlockMaterial",
			"pbrMetallicRoughness":{
				"baseColorFactor":[
					0.34670209884643555,
					0.16513235867023468,
					0.059511300176382065,
					1
				],
				"metallicFactor":0,
				"roughnessFactor":0.5
			}
		},
		{
			"doubleSided":true,
			"name":"GrassMaterial",
			"pbrMetallicRoughness":{
				"baseColorFactor":[
					0.412540078163147,
					0.5149180889129639,
					0.12213893234729767,
					1
				],
				"metallicFactor":0,
				"roughnessFactor":0.5
			}
		},
		{
			"doubleSided":true,
			"name":"RockMaterial",
			"pbrMetallicRoughness":{
				"baseColorFactor":[
					0.800000011920929,
					0.800000011920929,
					0.800000011920929,
					1
				],
				"metallicFactor":0,
				"roughnessFactor":0.5
			}
		},
		{
			"doubleSided":true,
			"name":"GrassTallMaterial",
			"pbrMetallicRoughness":{
				"baseColorFactor":[
					0.35885700583457947,
					0.3890000879764557,
					0.15442705154418945,
					1
				],
				"metallicFactor":0,
				"roughnessFactor":0.5
			}
		},
		{
			"doubleSided":true,
			"name":"SelectedMaterial",
			"pbrMetallicRoughness":{
				"baseColorFactor":[
					0.0007118679932318628,
					0,
					1,
					1
				],
				"metallicFactor":0,
				"roughnessFactor":0.5
			}
		}
	],
	"meshes":[
		{
			"name":"Cube",
			"primitives":[
				{
					"attributes":{
						"POSITION":0,
						"NORMAL":1,
						"TEXCOORD_0":2
					},
					"indices":3,
					"material":0
				}
			]
		},
		{
			"name":"Cube.006",
			"primitives":[
				{
					"attributes":{
						"POSITION":4,
						"NORMAL":5,
						"TEXCOORD_0":6
					},
					"indices":7,
					"material":1
				}
			]
		},
		{
			"name":"Sphere.002",
			"primitives":[
				{
					"attributes":{
						"POSITION":8,
						"NORMAL":9,
						"TEXCOORD_0":10
					},
					"indices":11,
					"material":2
				}
			]
		},
		{
			"name":"Cube.005",
			"primitives":[
				{
					"attributes":{
						"POSITION":12,
						"NORMAL":13,
						"TEXCOORD_0":14
					},
					"indices":15,
					"material":3
				}
			]
		},
		{
			"name":"Cube.002",
			"primitives":[
				{
					"attributes":{
						"POSITION":16,
						"NORMAL":17,
						"TEXCOORD_0":18
					},
					"indices":19,
					"material":3
				}
			]
		},
		{
			"name":"Cube.003",
			"primitives":[
				{
					"attributes":{
						"POSITION":20,
						"NORMAL":21,
						"TEXCOORD_0":22
					},
					"indices":19,
					"material":3
				}
			]
		},
		{
			"name":"Sphere.001",
			"primitives":[
				{
					"attributes":{
						"POSITION":23,
						"NORMAL":24,
						"TEXCOORD_0":25
					},
					"indices":11,
					"material":2
				}
			]
		},
		{
			"name":"Cube.007",
			"primitives":[
				{
					"attributes":{
						"POSITION":26,
						"NORMAL":27,
						"TEXCOORD_0":28
					},
					"indices":15,
					"material":3
				}
			]
		},
		{
			"name":"Cube.008",
			"primitives":[
				{
					"attributes":{
						"POSITION":29,
						"NORMAL":30,
						"TEXCOORD_0":31
					},
					"indices":19,
					"material":3
				}
			]
		},
		{
			"name":"Sphere.004",
			"primitives":[
				{
					"attributes":{
						"POSITION":32,
						"NORMAL":33,
						"TEXCOORD_0":34
					},
					"indices":11,
					"material":2
				}
			]
		},
		{
			"name":"Sphere.005",
			"primitives":[
				{
					"attributes":{
						"POSITION":35,
						"NORMAL":36,
						"TEXCOORD_0":37
					},
					"indices":11,
					"material":2
				}
			]
		},
		{
			"name":"Cube.009",
			"primitives":[
				{
					"attributes":{
						"POSITION":38,
						"NORMAL":39,
						"TEXCOORD_0":40
					},
					"indices":41,
					"material":4
				}
			]
		}
	],
	"accessors":[
		{
			"bufferView":0,
			"componentType":5126,
			"count":64,
			"max":[
				1,
				1,
				1
			],
			"min":[
				-1,
				-1,
				-1
			],
			"type":"VEC3"
		},
		{
			"bufferView":1,
			"componentType":5126,
			"count":64,
			"type":"VEC3"
		},
		{
			"bufferView":2,
			"componentType":5126,
			"count":64,
			"type":"VEC2"
		},
		{
			"bufferView":3,
			"componentType":5123,
			"count":138,
			"type":"SCALAR"
		},
		{
			"bufferView":4,
			"componentType":5126,
			"count":96,
			"max":[
				1,
				1,
				1
			],
			"min":[
				-1,
				-1.5147736072540283,
				-1
			],
			"type":"VEC3"
		},
		{
			"bufferView":5,
			"componentType":5126,
			"count":96,
			"type":"VEC3"
		},
		{
			"bufferView":6,
			"componentType":5126,
			"count":96,
			"type":"VEC2"
		},
		{
			"bufferView":7,
			"componentType":5123,
			"count":162,
			"type":"SCALAR"
		},
		{
			"bufferView":8,
			"componentType":5126,
			"count":372,
			"max":[
				0.095262810587883,
				0.11000001430511475,
				0.11000001430511475
			],
			"min":[
				-0.09526281803846359,
				-0.11000001430511475,
				-0.11000001430511475
			],
			"type":"VEC3"
		},
		{
			"bufferView":9,
			"componentType":5126,
			"count":372,
			"type":"VEC3"
		},
		{
			"bufferView":10,
			"componentType":5126,
			"count":372,
			"type":"VEC2"
		},
		{
			"bufferView":11,
			"componentType":5123,
			"count":540,
			"type":"SCALAR"
		},
		{
			"bufferView":12,
			"componentType":5126,
			"count":12,
			"max":[
				-0.4322323203086853,
				1.3960397243499756,
				-0.795847475528717
			],
			"min":[
				-0.7901235818862915,
				0.5,
				-1.1319308280944824
			],
			"type":"VEC3"
		},
		{
			"bufferView":13,
			"componentType":5126,
			"count":12,
			"type":"VEC3"
		},
		{
			"bufferView":14,
			"componentType":5126,
			"count":12,
			"type":"VEC2"
		},
		{
			"bufferView":15,
			"componentType":5123,
			"count":12,
			"type":"SCALAR"
		},
		{
			"bufferView":16,
			"componentType":5126,
			"count":12,
			"max":[
				-0.4169910252094269,
				1.612101435661316,
				-0.772549569606781
			],
			"min":[
				-0.8242110013961792,
				0.5,
				-1.2814449071884155
			],
			"type":"VEC3"
		},
		{
			"bufferView":17,
			"componentType":5126,
			"count":12,
			"type":"VEC3"
		},
		{
			"bufferView":18,
			"componentType":5126,
			"count":12,
			"type":"VEC2"
		},
		{
			"bufferView":19,
			"componentType":5123,
			"count":12,
			"type":"SCALAR"
		},
		{
			"bufferView":20,
			"componentType":5126,
			"count":12,
			"max":[
				-0.5080689787864685,
				1.0213335752487183,
				-0.9062337279319763
			],
			"min":[
				-0.7693603038787842,
				0.4000000059604645,
				-1.2651351690292358
			],
			"type":"VEC3"
		},
		{
			"bufferView":21,
			"componentType":5126,
			"count":12,
			"type":"VEC3"
		},
		{
			"bufferView":22,
			"componentType":5126,
			"count":12,
			"type":"VEC2"
		},
		{
			"bufferView":23,
			"componentType":5126,
			"count":372,
			"max":[
				0.095262810587883,
				0.11000001430511475,
				0.11000001430511475
			],
			"min":[
				-0.09526281803846359,
				-0.11000001430511475,
				-0.11000001430511475
			],
			"type":"VEC3"
		},
		{
			"bufferView":24,
			"componentType":5126,
			"count":372,
			"type":"VEC3"
		},
		{
			"bufferView":25,
			"componentType":5126,
			"count":372,
			"type":"VEC2"
		},
		{
			"bufferView":26,
			"componentType":5126,
			"count":12,
			"max":[
				-0.4322323203086853,
				1.3960397243499756,
				-0.795847475528717
			],
			"min":[
				-0.7901235818862915,
				0.5,
				-1.1319308280944824
			],
			"type":"VEC3"
		},
		{
			"bufferView":27,
			"componentType":5126,
			"count":12,
			"type":"VEC3"
		},
		{
			"bufferView":28,
			"componentType":5126,
			"count":12,
			"type":"VEC2"
		},
		{
			"bufferView":29,
			"componentType":5126,
			"count":12,
			"max":[
				-0.4169910252094269,
				1.612101435661316,
				-0.772549569606781
			],
			"min":[
				-0.8242110013961792,
				0.5,
				-1.2814449071884155
			],
			"type":"VEC3"
		},
		{
			"bufferView":30,
			"componentType":5126,
			"count":12,
			"type":"VEC3"
		},
		{
			"bufferView":31,
			"componentType":5126,
			"count":12,
			"type":"VEC2"
		},
		{
			"bufferView":32,
			"componentType":5126,
			"count":372,
			"max":[
				0.095262810587883,
				0.11000001430511475,
				0.11000001430511475
			],
			"min":[
				-0.09526281803846359,
				-0.11000001430511475,
				-0.11000001430511475
			],
			"type":"VEC3"
		},
		{
			"bufferView":33,
			"componentType":5126,
			"count":372,
			"type":"VEC3"
		},
		{
			"bufferView":34,
			"componentType":5126,
			"count":372,
			"type":"VEC2"
		},
		{
			"bufferView":35,
			"componentType":5126,
			"count":372,
			"max":[
				0.095262810587883,
				0.11000001430511475,
				0.11000001430511475
			],
			"min":[
				-0.09526281803846359,
				-0.11000001430511475,
				-0.11000001430511475
			],
			"type":"VEC3"
		},
		{
			"bufferView":36,
			"componentType":5126,
			"count":372,
			"type":"VEC3"
		},
		{
			"bufferView":37,
			"componentType":5126,
			"count":372,
			"type":"VEC2"
		},
		{
			"bufferView":38,
			"componentType":5126,
			"count":24,
			"max":[
				1,
				1,
				1
			],
			"min":[
				-1,
				-1,
				-1
			],
			"type":"VEC3"
		},
		{
			"bufferView":39,
			"componentType":5126,
			"count":24,
			"type":"VEC3"
		},
		{
			"bufferView":40,
			"componentType":5126,
			"count":24,
			"type":"VEC2"
		},
		{
			"bufferView":41,
			"componentType":5123,
			"count":36,
			"type":"SCALAR"
		},
		{
			"bufferView":42,
			"componentType":5126,
			"count":1,
			"max":[
				0.041666666666666664
			],
			"min":[
				0.041666666666666664
			],
			"type":"SCALAR"
		},
		{
			"bufferView":43,
			"componentType":5126,
			"count":1,
			"type":"VEC3"
		},
		{
			"bufferView":44,
			"componentType":5126,
			"count":1,
			"type":"VEC4"
		},
		{
			"bufferView":45,
			"componentType":5126,
			"count":1,
			"type":"VEC3"
		}
	],
	"bufferViews":[
		{
			"buffer":0,
			"byteLength":768,
			"byteOffset":0,
			"target":34962
		},
		{
			"buffer":0,
			"byteLength":768,
			"byteOffset":768,
			"target":34962
		},
		{
			"buffer":0,
			"byteLength":512,
			"byteOffset":1536,
			"target":34962
		},
		{
			"buffer":0,
			"byteLength":276,
			"byteOffset":2048,
			"target":34963
		},
		{
			"buffer":0,
			"byteLength":1152,
			"byteOffset":2324,
			"target":34962
		},
		{
			"buffer":0,
			"byteLength":1152,
			"byteOffset":3476,
			"target":34962
		},
		{
			"buffer":0,
			"byteLength":768,
			"byteOffset":4628,
			"target":34962
		},
		{
			"buffer":0,
			"byteLength":324,
			"byteOffset":5396,
			"target":34963
		},
		{
			"buffer":0,
			"byteLength":4464,
			"byteOffset":5720,
			"target":34962
		},
		{
			"buffer":0,
			"byteLength":4464,
			"byteOffset":10184,
			"target":34962
		},
		{
			"buffer":0,
			"byteLength":2976,
			"byteOffset":14648,
			"target":34962
		},
		{
			"buffer":0,
			"byteLength":1080,
			"byteOffset":17624,
			"target":34963
		},
		{
			"buffer":0,
			"byteLength":144,
			"byteOffset":18704,
			"target":34962
		},
		{
			"buffer":0,
			"byteLength":144,
			"byteOffset":18848,
			"target":34962
		},
		{
			"buffer":0,
			"byteLength":96,
			"byteOffset":18992,
			"target":34962
		},
		{
			"buffer":0,
			"byteLength":24,
			"byteOffset":19088,
			"target":34963
		},
		{
			"buffer":0,
			"byteLength":144,
			"byteOffset":19112,
			"target":34962
		},
		{
			"buffer":0,
			"byteLength":144,
			"byteOffset":19256,
			"target":34962
		},
		{
			"buffer":0,
			"byteLength":96,
			"byteOffset":19400,
			"target":34962
		},
		{
			"buffer":0,
			"byteLength":24,
			"byteOffset":19496,
			"target":34963
		},
		{
			"buffer":0,
			"byteLength":144,
			"byteOffset":19520,
			"target":34962
		},
		{
			"buffer":0,
			"byteLength":144,
			"byteOffset":19664,
			"target":34962
		},
		{
			"buffer":0,
			"byteLength":96,
			"byteOffset":19808,
			"target":34962
		},
		{
			"buffer":0,
			"byteLength":4464,
			"byteOffset":19904,
			"target":34962
		},
		{
			"buffer":0,
			"byteLength":4464,
			"byteOffset":24368,
			"target":34962
		},
		{
			"buffer":0,
			"byteLength":2976,
			"byteOffset":28832,
			"target":34962
		},
		{
			"buffer":0,
			"byteLength":144,
			"byteOffset":31808,
			"target":34962
		},
		{
			"buffer":0,
			"byteLength":144,
			"byteOffset":31952,
			"target":34962
		},
		{
			"buffer":0,
			"byteLength":96,
			"byteOffset":32096,
			"target":34962
		},
		{
			"buffer":0,
			"byteLength":144,
			"byteOffset":32192,
			"target":34962
		},
		{
			"buffer":0,
			"byteLength":144,
			"byteOffset":32336,
			"target":34962
		},
		{
			"buffer":0,
			"byteLength":96,
			"byteOffset":32480,
			"target":34962
		},
		{
			"buffer":0,
			"byteLength":4464,
			"byteOffset":32576,
			"target":34962
		},
		{
			"buffer":0,
			"byteLength":4464,
			"byteOffset":37040,
			"target":34962
		},
		{
			"buffer":0,
			"byteLength":2976,
			"byteOffset":41504,
			"target":34962
		},
		{
			"buffer":0,
			"byteLength":4464,
			"byteOffset":44480,
			"target":34962
		},
		{
			"buffer":0,
			"byteLength":4464,
			"byteOffset":48944,
			"target":34962
		},
		{
			"buffer":0,
			"byteLength":2976,
			"byteOffset":53408,
			"target":34962
		},
		{
			"buffer":0,
			"byteLength":288,
			"byteOffset":56384,
			"target":34962
		},
		{
			"buffer":0,
			"byteLength":288,
			"byteOffset":56672,
			"target":34962
		},
		{
			"buffer":0,
			"byteLength":192,
			"byteOffset":56960,
			"target":34962
		},
		{
			"buffer":0,
			"byteLength":72,
			"byteOffset":57152,
			"target":34963
		},
		{
			"buffer":0,
			"byteLength":4,
			"byteOffset":57224
		},
		{
			"buffer":0,
			"byteLength":12,
			"byteOffset":57228
		},
		{
			"buffer":0,
			"byteLength":16,
			"byteOffset":57240
		},
		{
			"buffer":0,
			"byteLength":12,
			"byteOffset":57256
		}
	],
	"buffers":[
		{
			"byteLength":57268,
			"uri":"grass-tile.bin"
		}
	]
}
